<svg xmlns="http://www.w3.org/2000/svg" xmlns:xlink="http://www.w3.org/1999/xlink" width="466" zoomAndPan="magnify" viewBox="0 0 349.5 220.499993" height="294" preserveAspectRatio="xMidYMid meet" version="1.2"><defs><clipPath id="11498774ff"><path d="M 18 0 L 348.855469 0 L 348.855469 210 L 18 210 Z M 18 0 "/></clipPath><clipPath id="4cc7c342c3"><path d="M 211 13 L 324 13 L 324 93 L 211 93 Z M 211 13 "/></clipPath><clipPath id="3a5a120691"><path d="M 218.609375 0 L 330.550781 54.707031 L 309.214844 98.359375 L 197.273438 43.65625 Z M 218.609375 0 "/></clipPath><clipPath id="edbd427abf"><path d="M 218.609375 0 L 330.550781 54.707031 L 309.214844 98.359375 L 197.273438 43.65625 Z M 218.609375 0 "/></clipPath><clipPath id="0d48a4f50b"><path d="M 0.0664062 14 L 39 14 L 39 72 L 0.0664062 72 Z M 0.0664062 14 "/></clipPath><clipPath id="b1cfcced0d"><rect x="0" width="263" y="0" height="85"/></clipPath><clipPath id="8a6c663b7b"><path d="M 0.585938 97 L 64 97 L 64 193 L 0.585938 193 Z M 0.585938 97 "/></clipPath><clipPath id="ec22106df0"><path d="M 0.585938 20 L 56 20 L 56 79 L 0.585938 79 Z M 0.585938 20 "/></clipPath><clipPath id="ed612ab033"><rect x="0" width="64" y="0" height="96"/></clipPath><clipPath id="aff6897357"><path d="M 24 177 L 299 177 L 299 209.765625 L 24 209.765625 Z M 24 177 "/></clipPath><clipPath id="620c1fcd83"><path d="M 0.53125 7 L 20 7 L 20 25 L 0.53125 25 Z M 0.53125 7 "/></clipPath><clipPath id="fbc0594073"><rect x="0" width="275" y="0" height="33"/></clipPath><clipPath id="e9233b1180"><rect x="0" width="331" y="0" height="210"/></clipPath></defs><g id="97870551d4"><g clip-rule="nonzero" clip-path="url(#11498774ff)"><g transform="matrix(1,0,0,1,18,0)"><g clip-path="url(#e9233b1180)"><g clip-rule="nonzero" clip-path="url(#4cc7c342c3)"><g clip-rule="nonzero" clip-path="url(#3a5a120691)"><g clip-rule="nonzero" clip-path="url(#edbd427abf)"><path style=" stroke:none;fill-rule:nonzero;fill:#38b6ff;fill-opacity:1;" d="M 323.03125 67.851562 L 277.042969 29.125 C 275.5 27.828125 273.667969 26.933594 271.730469 26.53125 L 212.882812 14.023438 C 211.859375 13.792969 211.214844 15.113281 212.023438 15.78125 L 234.632812 34.820312 C 251.328125 37.621094 267.121094 45.066406 280.746094 54.992188 C 266.472656 45.929688 249.921875 39.476562 233.074219 38.007812 L 229.476562 45.371094 C 229.171875 45.996094 229.558594 46.683594 230.234375 46.789062 C 239.84375 48.304688 250.179688 51.496094 260.367188 56.472656 C 270.550781 61.453125 279.417969 67.644531 286.554688 74.3125 C 287.054688 74.78125 287.800781 74.648438 288.105469 74.023438 L 293.261719 63.472656 L 305.890625 66.148438 L 296.253906 85.859375 L 296.070312 85.769531 C 295.667969 85.574219 295.179688 85.742188 294.980469 86.144531 L 293.207031 89.773438 C 293.011719 90.175781 293.179688 90.667969 293.582031 90.863281 L 295.78125 91.9375 C 296.183594 92.136719 296.675781 91.96875 296.871094 91.5625 L 298.644531 87.9375 C 298.84375 87.535156 298.671875 87.042969 298.269531 86.847656 L 298.085938 86.757812 L 307.9375 66.601562 L 322.171875 69.609375 C 323.230469 69.855469 323.878906 68.539062 323.03125 67.851562 Z M 323.03125 67.851562 "/></g></g></g><g style="fill:#f6d603;fill-opacity:1;"><g transform="translate(42.002994, 104.675356)"><path style="stroke:none" d="M 14.90625 -29.328125 C 14.851562 -29.046875 14.769531 -28.78125 14.65625 -28.53125 C 14.550781 -28.28125 14.441406 -28.015625 14.328125 -27.734375 C 13.273438 -24.847656 12.21875 -21.945312 11.15625 -19.03125 C 10.101562 -16.113281 9.019531 -13.1875 7.90625 -10.25 C 7.800781 -9.851562 7.648438 -9.460938 7.453125 -9.078125 C 7.253906 -8.691406 7.046875 -8.332031 6.828125 -8 C 5.773438 -6.332031 4.441406 -5.71875 2.828125 -6.15625 C 1.328125 -6.488281 0.441406 -7.601562 0.171875 -9.5 C 0.0546875 -10.382812 0.0507812 -11.242188 0.15625 -12.078125 C 0.269531 -12.910156 0.382812 -13.769531 0.5 -14.65625 C 1.28125 -18.65625 2.171875 -22.640625 3.171875 -26.609375 C 4.171875 -30.578125 5.363281 -34.507812 6.75 -38.40625 C 7.25 -39.84375 7.800781 -41.253906 8.40625 -42.640625 C 9.019531 -44.035156 9.71875 -45.398438 10.5 -46.734375 C 11 -47.566406 11.59375 -48.257812 12.28125 -48.8125 C 12.976562 -49.363281 13.851562 -49.722656 14.90625 -49.890625 C 17.238281 -50.171875 19.015625 -49.367188 20.234375 -47.484375 C 20.796875 -46.703125 21.242188 -45.835938 21.578125 -44.890625 C 23.015625 -40.898438 24.125 -36.765625 24.90625 -32.484375 C 25.1875 -30.867188 25.453125 -29.253906 25.703125 -27.640625 C 25.953125 -26.035156 26.210938 -24.429688 26.484375 -22.828125 C 26.546875 -22.597656 26.601562 -22.382812 26.65625 -22.1875 C 26.707031 -22 26.816406 -21.796875 26.984375 -21.578125 C 27.210938 -21.910156 27.410156 -22.351562 27.578125 -22.90625 C 28.847656 -26.570312 30.117188 -30.238281 31.390625 -33.90625 C 32.671875 -37.570312 33.925781 -41.265625 35.15625 -44.984375 C 35.707031 -46.535156 36.34375 -48.03125 37.0625 -49.46875 C 37.789062 -50.914062 38.679688 -52.25 39.734375 -53.46875 C 40.679688 -54.582031 41.734375 -55.304688 42.890625 -55.640625 C 44.835938 -56.140625 46.476562 -55.722656 47.8125 -54.390625 C 48.425781 -53.835938 48.941406 -53.1875 49.359375 -52.4375 C 49.773438 -51.6875 50.09375 -50.921875 50.3125 -50.140625 C 50.8125 -48.703125 51.195312 -47.242188 51.46875 -45.765625 C 51.75 -44.296875 52.003906 -42.8125 52.234375 -41.3125 C 52.503906 -39.09375 52.832031 -36.867188 53.21875 -34.640625 C 53.613281 -32.421875 53.921875 -30.175781 54.140625 -27.90625 C 54.421875 -25.125 54.6875 -22.316406 54.9375 -19.484375 C 55.1875 -16.660156 55.421875 -13.859375 55.640625 -11.078125 C 55.691406 -10.691406 55.734375 -10.289062 55.765625 -9.875 C 55.796875 -9.457031 55.835938 -9.023438 55.890625 -8.578125 C 56.054688 -7.359375 55.890625 -6.164062 55.390625 -5 C 54.390625 -2.613281 52.722656 -1.335938 50.390625 -1.171875 C 49.222656 -1.109375 48.179688 -1.34375 47.265625 -1.875 C 46.347656 -2.40625 45.585938 -3.171875 44.984375 -4.171875 C 44.484375 -5.054688 44.148438 -6.082031 43.984375 -7.25 C 43.753906 -9.6875 43.5 -12.140625 43.21875 -14.609375 C 42.945312 -17.085938 42.703125 -19.578125 42.484375 -22.078125 C 42.316406 -24.242188 42.175781 -26.421875 42.0625 -28.609375 C 41.945312 -30.804688 41.835938 -33.015625 41.734375 -35.234375 C 41.734375 -35.453125 41.71875 -35.671875 41.6875 -35.890625 C 41.65625 -36.117188 41.613281 -36.375 41.5625 -36.65625 C 41.289062 -36.425781 41.113281 -36.203125 41.03125 -35.984375 C 40.945312 -35.765625 40.875 -35.539062 40.8125 -35.3125 C 39.925781 -32.539062 39.050781 -29.75 38.1875 -26.9375 C 37.332031 -24.132812 36.457031 -21.347656 35.5625 -18.578125 C 34.957031 -16.578125 34.347656 -14.585938 33.734375 -12.609375 C 33.117188 -10.640625 32.507812 -8.65625 31.90625 -6.65625 C 31.40625 -5.050781 30.765625 -3.523438 29.984375 -2.078125 C 29.378906 -1.023438 28.5625 -0.28125 27.53125 0.15625 C 26.5 0.601562 25.429688 0.691406 24.328125 0.421875 C 23.710938 0.253906 23.164062 -0.0195312 22.6875 -0.40625 C 22.21875 -0.800781 21.789062 -1.273438 21.40625 -1.828125 C 20.851562 -2.660156 20.4375 -3.550781 20.15625 -4.5 C 19.875 -5.445312 19.625 -6.390625 19.40625 -7.328125 C 19.070312 -8.992188 18.765625 -10.671875 18.484375 -12.359375 C 18.210938 -14.054688 17.910156 -15.769531 17.578125 -17.5 C 17.296875 -19.269531 16.972656 -21.039062 16.609375 -22.8125 C 16.253906 -24.59375 15.910156 -26.347656 15.578125 -28.078125 C 15.523438 -28.296875 15.46875 -28.5 15.40625 -28.6875 C 15.351562 -28.882812 15.300781 -29.097656 15.25 -29.328125 C 15.1875 -29.328125 15.140625 -29.328125 15.109375 -29.328125 C 15.085938 -29.328125 15.019531 -29.328125 14.90625 -29.328125 Z M 17.078125 -47.890625 C 16.859375 -48.285156 16.632812 -48.507812 16.40625 -48.5625 C 16.1875 -48.613281 15.9375 -48.613281 15.65625 -48.5625 C 15.050781 -48.445312 14.5 -48.28125 14 -48.0625 C 12.769531 -47.34375 11.804688 -46.410156 11.109375 -45.265625 C 10.421875 -44.128906 9.910156 -42.894531 9.578125 -41.5625 C 9.578125 -41.5625 9.660156 -41.34375 9.828125 -40.90625 C 10.109375 -41.34375 10.375 -41.753906 10.625 -42.140625 C 10.875 -42.535156 11.109375 -42.925781 11.328125 -43.3125 C 12.046875 -44.425781 12.804688 -45.425781 13.609375 -46.3125 C 14.421875 -47.195312 15.578125 -47.722656 17.078125 -47.890625 Z M 45.8125 -10.65625 C 45.695312 -10.601562 45.613281 -10.578125 45.5625 -10.578125 C 45.507812 -10.578125 45.484375 -10.578125 45.484375 -10.578125 C 45.367188 -10.359375 45.3125 -10.21875 45.3125 -10.15625 C 45.09375 -7.769531 45.757812 -5.691406 47.3125 -3.921875 C 47.59375 -3.691406 47.898438 -3.476562 48.234375 -3.28125 C 48.566406 -3.09375 48.898438 -2.914062 49.234375 -2.75 C 49.453125 -2.695312 49.695312 -2.671875 49.96875 -2.671875 C 50.25 -2.671875 50.53125 -2.835938 50.8125 -3.171875 C 49.144531 -3.941406 47.960938 -4.976562 47.265625 -6.28125 C 46.578125 -7.59375 46.09375 -9.050781 45.8125 -10.65625 Z M 37.65625 -46.3125 C 37.875 -46.195312 37.984375 -46.140625 37.984375 -46.140625 C 38.097656 -46.304688 38.207031 -46.445312 38.3125 -46.5625 C 38.425781 -46.675781 38.507812 -46.816406 38.5625 -46.984375 C 38.84375 -47.421875 39.109375 -47.863281 39.359375 -48.3125 C 39.609375 -48.757812 39.84375 -49.203125 40.0625 -49.640625 C 40.5625 -50.535156 41.128906 -51.359375 41.765625 -52.109375 C 42.410156 -52.859375 43.203125 -53.425781 44.140625 -53.8125 C 44.203125 -53.8125 44.242188 -53.851562 44.265625 -53.9375 C 44.296875 -54.019531 44.335938 -54.085938 44.390625 -54.140625 C 43.953125 -54.304688 43.660156 -54.398438 43.515625 -54.421875 C 43.378906 -54.453125 43.171875 -54.382812 42.890625 -54.21875 C 42.503906 -54 42.128906 -53.75 41.765625 -53.46875 C 41.410156 -53.195312 41.09375 -52.921875 40.8125 -52.640625 C 40.09375 -51.867188 39.492188 -51.007812 39.015625 -50.0625 C 38.546875 -49.113281 38.117188 -48.140625 37.734375 -47.140625 C 37.679688 -47.035156 37.664062 -46.898438 37.6875 -46.734375 C 37.71875 -46.566406 37.707031 -46.425781 37.65625 -46.3125 Z M 21.734375 -8.828125 C 21.847656 -7.609375 22.054688 -6.441406 22.359375 -5.328125 C 22.671875 -4.222656 23.1875 -3.195312 23.90625 -2.25 C 24.238281 -1.863281 24.640625 -1.585938 25.109375 -1.421875 C 25.585938 -1.253906 26.078125 -1.140625 26.578125 -1.078125 C 26.679688 -1.023438 26.800781 -1.050781 26.9375 -1.15625 C 27.082031 -1.269531 27.320312 -1.359375 27.65625 -1.421875 C 26.4375 -1.921875 25.503906 -2.585938 24.859375 -3.421875 C 24.222656 -4.253906 23.679688 -5.15625 23.234375 -6.125 C 22.796875 -7.09375 22.296875 -7.992188 21.734375 -8.828125 Z M 2.25 -14.75 C 1.53125 -13.800781 1.222656 -12.660156 1.328125 -11.328125 C 1.441406 -9.992188 1.859375 -8.96875 2.578125 -8.25 C 2.859375 -8.019531 3.109375 -7.820312 3.328125 -7.65625 C 3.554688 -7.488281 3.835938 -7.460938 4.171875 -7.578125 C 3.890625 -8.191406 3.59375 -8.773438 3.28125 -9.328125 C 2.976562 -9.878906 2.742188 -10.4375 2.578125 -11 C 2.410156 -11.601562 2.328125 -12.222656 2.328125 -12.859375 C 2.328125 -13.503906 2.300781 -14.132812 2.25 -14.75 Z M 2.25 -14.75 "/></g></g><g style="fill:#f6d603;fill-opacity:1;"><g transform="translate(100.475128, 104.675356)"><path style="stroke:none" d="M 28.078125 -9.40625 C 26.515625 -9.40625 24.984375 -9.296875 23.484375 -9.078125 C 21.984375 -8.859375 20.515625 -8.609375 19.078125 -8.328125 C 17.242188 -7.941406 15.394531 -7.550781 13.53125 -7.15625 C 11.675781 -6.769531 9.832031 -6.382812 8 -6 C 7.101562 -5.832031 6.628906 -5.359375 6.578125 -4.578125 C 6.523438 -4.304688 6.46875 -4.015625 6.40625 -3.703125 C 6.351562 -3.398438 6.269531 -3.109375 6.15625 -2.828125 C 5.664062 -1.054688 4.554688 -0.253906 2.828125 -0.421875 C 2.109375 -0.472656 1.5 -0.757812 1 -1.28125 C 0.5 -1.8125 0.191406 -2.492188 0.078125 -3.328125 C 0.0234375 -4.054688 0.0078125 -4.78125 0.03125 -5.5 C 0.0625 -6.21875 0.109375 -6.9375 0.171875 -7.65625 C 0.554688 -11.320312 0.941406 -15.125 1.328125 -19.0625 C 1.722656 -23.007812 2.304688 -26.953125 3.078125 -30.890625 C 3.859375 -34.835938 5 -38.601562 6.5 -42.1875 C 8 -45.769531 10.023438 -49.003906 12.578125 -51.890625 C 13.359375 -52.785156 14.191406 -53.5625 15.078125 -54.21875 C 15.960938 -54.882812 16.988281 -55.359375 18.15625 -55.640625 C 19.101562 -55.921875 20.019531 -55.960938 20.90625 -55.765625 C 21.789062 -55.566406 22.648438 -55.21875 23.484375 -54.71875 C 24.816406 -54 25.957031 -53.097656 26.90625 -52.015625 C 27.851562 -50.929688 28.660156 -49.722656 29.328125 -48.390625 C 31.046875 -45.117188 32.347656 -41.523438 33.234375 -37.609375 C 34.117188 -33.691406 34.894531 -29.898438 35.5625 -26.234375 C 36.175781 -22.847656 36.59375 -19.40625 36.8125 -15.90625 C 37.039062 -12.40625 37.070312 -8.9375 36.90625 -5.5 C 36.84375 -5.050781 36.769531 -4.578125 36.6875 -4.078125 C 36.601562 -3.578125 36.476562 -3.109375 36.3125 -2.671875 C 35.757812 -1.273438 34.675781 -0.578125 33.0625 -0.578125 C 31.457031 -0.578125 30.375 -1.273438 29.8125 -2.671875 C 29.65625 -3.109375 29.519531 -3.5625 29.40625 -4.03125 C 29.289062 -4.507812 29.179688 -4.941406 29.078125 -5.328125 C 28.910156 -5.992188 28.742188 -6.660156 28.578125 -7.328125 C 28.410156 -7.992188 28.242188 -8.6875 28.078125 -9.40625 Z M 18.984375 -45.984375 C 18.816406 -45.753906 18.632812 -45.554688 18.4375 -45.390625 C 18.25 -45.222656 18.070312 -45.03125 17.90625 -44.8125 C 17.019531 -43.59375 16.210938 -42.328125 15.484375 -41.015625 C 14.765625 -39.710938 14.128906 -38.34375 13.578125 -36.90625 C 12.296875 -33.625 11.296875 -30.257812 10.578125 -26.8125 C 9.859375 -23.375 9.21875 -19.90625 8.65625 -16.40625 C 8.65625 -16.351562 8.671875 -16.253906 8.703125 -16.109375 C 8.734375 -15.972656 8.75 -15.769531 8.75 -15.5 C 14.25 -17.882812 19.992188 -19.410156 25.984375 -20.078125 C 25.984375 -20.296875 25.984375 -20.457031 25.984375 -20.5625 C 25.984375 -20.675781 25.984375 -20.765625 25.984375 -20.828125 C 25.429688 -23.597656 24.875 -26.328125 24.3125 -29.015625 C 23.757812 -31.710938 23.179688 -34.425781 22.578125 -37.15625 C 22.296875 -38.320312 21.972656 -39.484375 21.609375 -40.640625 C 21.253906 -41.804688 20.878906 -42.945312 20.484375 -44.0625 C 20.378906 -44.445312 20.210938 -44.804688 19.984375 -45.140625 C 19.765625 -45.472656 19.429688 -45.753906 18.984375 -45.984375 Z M 12.75 -48.640625 C 13.414062 -49.253906 14.066406 -49.835938 14.703125 -50.390625 C 15.335938 -50.953125 15.988281 -51.507812 16.65625 -52.0625 C 17.269531 -52.675781 17.992188 -53.09375 18.828125 -53.3125 C 19.660156 -53.53125 20.460938 -53.75 21.234375 -53.96875 C 20.347656 -54.363281 19.472656 -54.460938 18.609375 -54.265625 C 17.753906 -54.066406 16.9375 -53.722656 16.15625 -53.234375 C 15.101562 -52.503906 14.253906 -51.738281 13.609375 -50.9375 C 12.972656 -50.132812 12.6875 -49.367188 12.75 -48.640625 Z M 29.984375 -8.75 C 29.929688 -7.800781 29.972656 -6.882812 30.109375 -6 C 30.242188 -5.113281 30.5625 -4.28125 31.0625 -3.5 C 31.289062 -3.21875 31.539062 -2.953125 31.8125 -2.703125 C 32.09375 -2.453125 32.375 -2.21875 32.65625 -2 C 32.875 -1.882812 33.132812 -1.8125 33.4375 -1.78125 C 33.75 -1.757812 34.097656 -1.859375 34.484375 -2.078125 C 32.929688 -2.691406 31.90625 -3.632812 31.40625 -4.90625 C 30.90625 -6.1875 30.429688 -7.46875 29.984375 -8.75 Z M 1.421875 -7.15625 C 1.023438 -6.382812 0.84375 -5.625 0.875 -4.875 C 0.90625 -4.125 1.113281 -3.359375 1.5 -2.578125 C 2 -1.472656 2.832031 -1.171875 4 -1.671875 C 2.832031 -2.273438 2.175781 -3.09375 2.03125 -4.125 C 1.894531 -5.15625 1.691406 -6.164062 1.421875 -7.15625 Z M 1.421875 -7.15625 "/></g></g><g style="fill:#f6d603;fill-opacity:1;"><g transform="translate(140.039602, 104.675356)"><path style="stroke:none" d="M 9.75 -18.578125 C 9.632812 -17.960938 9.519531 -17.351562 9.40625 -16.75 C 9.351562 -15.96875 9.269531 -15.160156 9.15625 -14.328125 C 9.050781 -13.492188 8.941406 -12.6875 8.828125 -11.90625 C 8.546875 -10.1875 7.628906 -9.242188 6.078125 -9.078125 C 5.304688 -9.023438 4.585938 -9.164062 3.921875 -9.5 C 3.253906 -9.832031 2.78125 -10.359375 2.5 -11.078125 C 2.28125 -11.691406 2.097656 -12.332031 1.953125 -13 C 1.816406 -13.664062 1.691406 -14.332031 1.578125 -15 C 1.523438 -16.21875 1.46875 -17.421875 1.40625 -18.609375 C 1.351562 -19.804688 1.300781 -21.015625 1.25 -22.234375 C 1.25 -22.960938 1.207031 -23.671875 1.125 -24.359375 C 1.039062 -25.054688 0.832031 -25.738281 0.5 -26.40625 C 0.164062 -27.019531 0.0234375 -27.671875 0.078125 -28.359375 C 0.140625 -29.054688 0.304688 -29.738281 0.578125 -30.40625 C 0.691406 -30.675781 0.800781 -30.953125 0.90625 -31.234375 C 1.019531 -31.515625 1.078125 -31.789062 1.078125 -32.0625 C 1.191406 -34.84375 1.316406 -37.609375 1.453125 -40.359375 C 1.597656 -43.109375 1.722656 -45.84375 1.828125 -48.5625 C 1.890625 -49.175781 1.945312 -49.800781 2 -50.4375 C 2.050781 -51.070312 2.109375 -51.695312 2.171875 -52.3125 C 2.273438 -53.082031 2.601562 -53.703125 3.15625 -54.171875 C 3.71875 -54.648438 4.359375 -54.890625 5.078125 -54.890625 C 5.859375 -54.890625 6.507812 -54.625 7.03125 -54.09375 C 7.5625 -53.570312 7.851562 -52.894531 7.90625 -52.0625 C 8.019531 -50.007812 8.144531 -47.953125 8.28125 -45.890625 C 8.425781 -43.835938 8.550781 -41.757812 8.65625 -39.65625 C 8.71875 -39.375 8.757812 -39.050781 8.78125 -38.6875 C 8.8125 -38.332031 8.851562 -37.929688 8.90625 -37.484375 C 9.238281 -37.703125 9.515625 -37.878906 9.734375 -38.015625 C 9.960938 -38.160156 10.1875 -38.316406 10.40625 -38.484375 C 11.632812 -39.597656 12.859375 -40.679688 14.078125 -41.734375 C 15.296875 -42.785156 16.519531 -43.867188 17.75 -44.984375 C 19.851562 -46.867188 21.929688 -48.78125 23.984375 -50.71875 C 26.046875 -52.664062 28.101562 -54.582031 30.15625 -56.46875 C 30.488281 -56.75 30.820312 -57.015625 31.15625 -57.265625 C 31.488281 -57.515625 31.847656 -57.695312 32.234375 -57.8125 C 33.515625 -58.3125 34.640625 -58.171875 35.609375 -57.390625 C 36.578125 -56.609375 36.976562 -55.550781 36.8125 -54.21875 C 36.539062 -52.726562 35.929688 -51.453125 34.984375 -50.390625 C 34.203125 -49.453125 33.410156 -48.492188 32.609375 -47.515625 C 31.804688 -46.546875 30.957031 -45.585938 30.0625 -44.640625 C 27.84375 -42.421875 25.625 -40.210938 23.40625 -38.015625 C 21.1875 -35.828125 18.96875 -33.648438 16.75 -31.484375 C 16.300781 -31.035156 15.796875 -30.601562 15.234375 -30.1875 C 14.679688 -29.78125 14.101562 -29.296875 13.5 -28.734375 C 13.71875 -28.628906 13.921875 -28.519531 14.109375 -28.40625 C 14.304688 -28.289062 14.460938 -28.179688 14.578125 -28.078125 C 14.960938 -27.847656 15.304688 -27.59375 15.609375 -27.3125 C 15.921875 -27.039062 16.269531 -26.796875 16.65625 -26.578125 C 19.207031 -24.796875 21.566406 -22.835938 23.734375 -20.703125 C 25.898438 -18.566406 28.007812 -16.332031 30.0625 -14 C 31.175781 -12.71875 32.300781 -11.4375 33.4375 -10.15625 C 34.582031 -8.882812 35.597656 -7.523438 36.484375 -6.078125 C 36.703125 -5.742188 36.910156 -5.425781 37.109375 -5.125 C 37.304688 -4.820312 37.457031 -4.503906 37.5625 -4.171875 C 38.007812 -3.054688 38.078125 -1.96875 37.765625 -0.90625 C 37.460938 0.144531 36.867188 1.03125 35.984375 1.75 C 35.203125 2.414062 34.226562 2.757812 33.0625 2.78125 C 31.894531 2.8125 30.84375 2.523438 29.90625 1.921875 C 29.519531 1.640625 29.160156 1.332031 28.828125 1 C 28.492188 0.664062 28.1875 0.332031 27.90625 0 C 25.570312 -2.5 23.253906 -5 20.953125 -7.5 C 18.648438 -10 16.359375 -12.5 14.078125 -15 C 13.523438 -15.550781 12.957031 -16.0625 12.375 -16.53125 C 11.789062 -17.007812 11.21875 -17.492188 10.65625 -17.984375 C 10.550781 -18.097656 10.425781 -18.195312 10.28125 -18.28125 C 10.144531 -18.363281 9.96875 -18.460938 9.75 -18.578125 Z M 26.484375 -5.578125 C 26.429688 -5.523438 26.375 -5.46875 26.3125 -5.40625 C 26.257812 -5.351562 26.179688 -5.300781 26.078125 -5.25 C 26.847656 -3.914062 27.734375 -2.691406 28.734375 -1.578125 C 29.734375 -0.472656 31.007812 0.300781 32.5625 0.75 C 32.84375 0.800781 33.160156 0.8125 33.515625 0.78125 C 33.878906 0.757812 34.203125 0.722656 34.484375 0.671875 C 34.765625 0.554688 35 0.382812 35.1875 0.15625 C 35.382812 -0.0625 35.507812 -0.363281 35.5625 -0.75 C 34.507812 -0.25 33.566406 -0.175781 32.734375 -0.53125 C 31.898438 -0.894531 31.09375 -1.359375 30.3125 -1.921875 C 29.875 -2.304688 29.414062 -2.71875 28.9375 -3.15625 C 28.46875 -3.601562 28.015625 -4.050781 27.578125 -4.5 C 27.410156 -4.664062 27.226562 -4.84375 27.03125 -5.03125 C 26.832031 -5.226562 26.648438 -5.410156 26.484375 -5.578125 Z M 3.171875 -16.828125 C 2.609375 -15.773438 2.535156 -14.609375 2.953125 -13.328125 C 3.367188 -12.046875 3.992188 -11.210938 4.828125 -10.828125 C 5.109375 -10.710938 5.375 -10.640625 5.625 -10.609375 C 5.875 -10.585938 6.164062 -10.742188 6.5 -11.078125 C 5.332031 -11.628906 4.566406 -12.429688 4.203125 -13.484375 C 3.847656 -14.546875 3.503906 -15.660156 3.171875 -16.828125 Z M 34.5625 -56.390625 C 34.289062 -56.671875 33.972656 -56.796875 33.609375 -56.765625 C 33.242188 -56.734375 32.925781 -56.664062 32.65625 -56.5625 C 31.757812 -56.164062 30.992188 -55.648438 30.359375 -55.015625 C 29.722656 -54.378906 29.15625 -53.671875 28.65625 -52.890625 C 28.601562 -52.835938 28.585938 -52.738281 28.609375 -52.59375 C 28.640625 -52.457031 28.65625 -52.253906 28.65625 -51.984375 C 29.207031 -52.484375 29.703125 -52.9375 30.140625 -53.34375 C 30.585938 -53.757812 31.035156 -54.132812 31.484375 -54.46875 C 31.929688 -54.800781 32.414062 -55.117188 32.9375 -55.421875 C 33.46875 -55.734375 34.007812 -56.054688 34.5625 -56.390625 Z M 6.25 -53.46875 C 5.03125 -54.132812 4.085938 -53.914062 3.421875 -52.8125 C 3.023438 -52.257812 2.828125 -51.648438 2.828125 -50.984375 C 2.828125 -50.316406 2.910156 -49.648438 3.078125 -48.984375 C 3.304688 -49.421875 3.488281 -49.847656 3.625 -50.265625 C 3.757812 -50.679688 3.882812 -51.085938 4 -51.484375 C 4.113281 -52.035156 4.363281 -52.445312 4.75 -52.71875 C 5.132812 -53 5.632812 -53.25 6.25 -53.46875 Z M 2 -26.484375 C 2.050781 -27.265625 2.09375 -27.957031 2.125 -28.5625 C 2.15625 -29.175781 2.195312 -29.816406 2.25 -30.484375 C 0.632812 -29.429688 0.550781 -28.097656 2 -26.484375 Z M 2 -26.484375 "/></g></g><g style="fill:#f6d603;fill-opacity:1;"><g transform="translate(180.520286, 104.675356)"><path style="stroke:none" d="M 7.90625 -28.578125 C 7.851562 -28.179688 7.796875 -27.757812 7.734375 -27.3125 C 7.679688 -26.875 7.65625 -26.429688 7.65625 -25.984375 C 7.601562 -25.046875 7.5625 -24.085938 7.53125 -23.109375 C 7.507812 -22.140625 7.5 -21.179688 7.5 -20.234375 C 7.4375 -18.078125 7.363281 -15.914062 7.28125 -13.75 C 7.195312 -11.582031 7.101562 -9.414062 7 -7.25 C 7 -6.851562 6.941406 -6.445312 6.828125 -6.03125 C 6.710938 -5.625 6.570312 -5.222656 6.40625 -4.828125 C 5.96875 -3.722656 5.191406 -3.097656 4.078125 -2.953125 C 2.972656 -2.816406 2.03125 -3.222656 1.25 -4.171875 C 0.46875 -5.054688 0.078125 -6.082031 0.078125 -7.25 C 0.0234375 -8.351562 0.0078125 -9.445312 0.03125 -10.53125 C 0.0625 -11.613281 0.078125 -12.6875 0.078125 -13.75 C 0.140625 -14.6875 0.195312 -15.613281 0.25 -16.53125 C 0.300781 -17.445312 0.328125 -18.347656 0.328125 -19.234375 C 0.390625 -21.679688 0.421875 -24.140625 0.421875 -26.609375 C 0.421875 -29.078125 0.445312 -31.535156 0.5 -33.984375 C 0.664062 -37.265625 0.914062 -40.515625 1.25 -43.734375 C 1.363281 -44.335938 1.53125 -44.929688 1.75 -45.515625 C 1.96875 -46.097656 2.21875 -46.640625 2.5 -47.140625 C 3.5 -48.804688 4.816406 -49.679688 6.453125 -49.765625 C 8.085938 -49.847656 9.519531 -49.171875 10.75 -47.734375 C 11.582031 -46.734375 12.289062 -45.675781 12.875 -44.5625 C 13.457031 -43.445312 14 -42.3125 14.5 -41.15625 C 15.4375 -38.988281 16.363281 -36.789062 17.28125 -34.5625 C 18.195312 -32.34375 19.128906 -30.125 20.078125 -27.90625 C 21.015625 -25.6875 21.941406 -23.476562 22.859375 -21.28125 C 23.773438 -19.082031 24.707031 -16.847656 25.65625 -14.578125 C 25.769531 -14.359375 25.878906 -14.132812 25.984375 -13.90625 C 26.097656 -13.6875 26.238281 -13.4375 26.40625 -13.15625 C 26.6875 -13.71875 26.851562 -14.25 26.90625 -14.75 C 26.957031 -15.25 26.984375 -15.75 26.984375 -16.25 C 27.097656 -20.300781 27.179688 -24.351562 27.234375 -28.40625 C 27.296875 -32.457031 27.378906 -36.507812 27.484375 -40.5625 C 27.546875 -42.726562 27.644531 -44.894531 27.78125 -47.0625 C 27.914062 -49.226562 28.039062 -51.394531 28.15625 -53.5625 C 28.207031 -54.113281 28.316406 -54.640625 28.484375 -55.140625 C 28.648438 -55.640625 28.816406 -56.164062 28.984375 -56.71875 C 29.378906 -58.164062 30.378906 -58.972656 31.984375 -59.140625 C 32.816406 -59.191406 33.507812 -59.023438 34.0625 -58.640625 C 34.625 -58.253906 35.097656 -57.726562 35.484375 -57.0625 C 35.867188 -56.332031 36.117188 -55.578125 36.234375 -54.796875 C 36.347656 -54.023438 36.429688 -53.253906 36.484375 -52.484375 C 36.867188 -46.984375 36.867188 -41.5 36.484375 -36.03125 C 36.097656 -30.5625 35.65625 -25.085938 35.15625 -19.609375 C 34.65625 -14.140625 34.40625 -8.660156 34.40625 -3.171875 C 34.34375 -2.273438 34.171875 -1.425781 33.890625 -0.625 C 33.617188 0.175781 33.175781 0.910156 32.5625 1.578125 C 31.507812 2.691406 30.359375 3.375 29.109375 3.625 C 27.859375 3.875 26.539062 3.859375 25.15625 3.578125 C 23.988281 3.304688 22.972656 2.835938 22.109375 2.171875 C 21.253906 1.503906 20.460938 0.722656 19.734375 -0.171875 C 18.515625 -1.609375 17.503906 -3.128906 16.703125 -4.734375 C 15.898438 -6.347656 15.191406 -8.019531 14.578125 -9.75 C 13.523438 -12.75 12.5 -15.773438 11.5 -18.828125 C 10.5 -21.878906 9.46875 -24.90625 8.40625 -27.90625 C 8.40625 -28.070312 8.351562 -28.320312 8.25 -28.65625 C 8.132812 -28.601562 8.019531 -28.578125 7.90625 -28.578125 Z M 29.484375 1.421875 C 29.097656 1.253906 28.738281 1.085938 28.40625 0.921875 C 28.070312 0.753906 27.710938 0.613281 27.328125 0.5 C 25.660156 -0.0507812 24.210938 -1.023438 22.984375 -2.421875 C 22.546875 -2.972656 22.128906 -3.523438 21.734375 -4.078125 C 21.347656 -4.640625 20.929688 -5.195312 20.484375 -5.75 C 20.316406 -5.914062 20.148438 -6.09375 19.984375 -6.28125 C 19.816406 -6.476562 19.648438 -6.6875 19.484375 -6.90625 C 19.378906 -6.800781 19.296875 -6.75 19.234375 -6.75 C 19.234375 -6.414062 19.289062 -6.191406 19.40625 -6.078125 C 19.738281 -5.359375 20.082031 -4.648438 20.4375 -3.953125 C 20.800781 -3.265625 21.207031 -2.613281 21.65625 -2 C 22.269531 -1.113281 22.976562 -0.351562 23.78125 0.28125 C 24.582031 0.925781 25.515625 1.390625 26.578125 1.671875 C 27.015625 1.773438 27.484375 1.84375 27.984375 1.875 C 28.484375 1.90625 28.984375 1.753906 29.484375 1.421875 Z M 7.15625 -47.890625 C 6.050781 -48.390625 5.023438 -48.085938 4.078125 -46.984375 C 3.359375 -46.148438 2.898438 -45.191406 2.703125 -44.109375 C 2.515625 -43.023438 2.640625 -42.09375 3.078125 -41.3125 C 3.191406 -41.695312 3.300781 -42.039062 3.40625 -42.34375 C 3.519531 -42.65625 3.609375 -42.953125 3.671875 -43.234375 C 3.941406 -44.171875 4.300781 -45.03125 4.75 -45.8125 C 5.195312 -46.59375 5.914062 -47.175781 6.90625 -47.5625 C 7.019531 -47.675781 7.101562 -47.785156 7.15625 -47.890625 Z M 29.328125 -51.140625 C 29.429688 -51.085938 29.523438 -51.0625 29.609375 -51.0625 C 29.691406 -51.0625 29.757812 -51.035156 29.8125 -50.984375 C 29.925781 -51.585938 30.050781 -52.179688 30.1875 -52.765625 C 30.332031 -53.347656 30.515625 -53.914062 30.734375 -54.46875 C 31.015625 -55.03125 31.347656 -55.5625 31.734375 -56.0625 C 32.117188 -56.5625 32.507812 -57.085938 32.90625 -57.640625 C 32.34375 -57.859375 31.894531 -57.828125 31.5625 -57.546875 C 31.226562 -57.273438 30.925781 -56.972656 30.65625 -56.640625 C 29.9375 -55.859375 29.476562 -54.992188 29.28125 -54.046875 C 29.082031 -53.109375 29.097656 -52.140625 29.328125 -51.140625 Z M 1.921875 -10.15625 C 1.253906 -8.65625 1.304688 -7.210938 2.078125 -5.828125 C 2.304688 -5.492188 2.597656 -5.21875 2.953125 -5 C 3.316406 -4.78125 3.664062 -4.53125 4 -4.25 C 4.113281 -4.195312 4.238281 -4.195312 4.375 -4.25 C 4.507812 -4.300781 4.660156 -4.328125 4.828125 -4.328125 C 4.828125 -4.441406 4.882812 -4.554688 5 -4.671875 C 3.945312 -5.273438 3.222656 -6.078125 2.828125 -7.078125 C 2.441406 -8.078125 2.140625 -9.101562 1.921875 -10.15625 Z M 1.921875 -10.15625 "/></g></g><g style="fill:#f6d603;fill-opacity:1;"><g transform="translate(219.751627, 104.675356)"><path style="stroke:none" d="M 28.078125 -9.40625 C 26.515625 -9.40625 24.984375 -9.296875 23.484375 -9.078125 C 21.984375 -8.859375 20.515625 -8.609375 19.078125 -8.328125 C 17.242188 -7.941406 15.394531 -7.550781 13.53125 -7.15625 C 11.675781 -6.769531 9.832031 -6.382812 8 -6 C 7.101562 -5.832031 6.628906 -5.359375 6.578125 -4.578125 C 6.523438 -4.304688 6.46875 -4.015625 6.40625 -3.703125 C 6.351562 -3.398438 6.269531 -3.109375 6.15625 -2.828125 C 5.664062 -1.054688 4.554688 -0.253906 2.828125 -0.421875 C 2.109375 -0.472656 1.5 -0.757812 1 -1.28125 C 0.5 -1.8125 0.191406 -2.492188 0.078125 -3.328125 C 0.0234375 -4.054688 0.0078125 -4.78125 0.03125 -5.5 C 0.0625 -6.21875 0.109375 -6.9375 0.171875 -7.65625 C 0.554688 -11.320312 0.941406 -15.125 1.328125 -19.0625 C 1.722656 -23.007812 2.304688 -26.953125 3.078125 -30.890625 C 3.859375 -34.835938 5 -38.601562 6.5 -42.1875 C 8 -45.769531 10.023438 -49.003906 12.578125 -51.890625 C 13.359375 -52.785156 14.191406 -53.5625 15.078125 -54.21875 C 15.960938 -54.882812 16.988281 -55.359375 18.15625 -55.640625 C 19.101562 -55.921875 20.019531 -55.960938 20.90625 -55.765625 C 21.789062 -55.566406 22.648438 -55.21875 23.484375 -54.71875 C 24.816406 -54 25.957031 -53.097656 26.90625 -52.015625 C 27.851562 -50.929688 28.660156 -49.722656 29.328125 -48.390625 C 31.046875 -45.117188 32.347656 -41.523438 33.234375 -37.609375 C 34.117188 -33.691406 34.894531 -29.898438 35.5625 -26.234375 C 36.175781 -22.847656 36.59375 -19.40625 36.8125 -15.90625 C 37.039062 -12.40625 37.070312 -8.9375 36.90625 -5.5 C 36.84375 -5.050781 36.769531 -4.578125 36.6875 -4.078125 C 36.601562 -3.578125 36.476562 -3.109375 36.3125 -2.671875 C 35.757812 -1.273438 34.675781 -0.578125 33.0625 -0.578125 C 31.457031 -0.578125 30.375 -1.273438 29.8125 -2.671875 C 29.65625 -3.109375 29.519531 -3.5625 29.40625 -4.03125 C 29.289062 -4.507812 29.179688 -4.941406 29.078125 -5.328125 C 28.910156 -5.992188 28.742188 -6.660156 28.578125 -7.328125 C 28.410156 -7.992188 28.242188 -8.6875 28.078125 -9.40625 Z M 18.984375 -45.984375 C 18.816406 -45.753906 18.632812 -45.554688 18.4375 -45.390625 C 18.25 -45.222656 18.070312 -45.03125 17.90625 -44.8125 C 17.019531 -43.59375 16.210938 -42.328125 15.484375 -41.015625 C 14.765625 -39.710938 14.128906 -38.34375 13.578125 -36.90625 C 12.296875 -33.625 11.296875 -30.257812 10.578125 -26.8125 C 9.859375 -23.375 9.21875 -19.90625 8.65625 -16.40625 C 8.65625 -16.351562 8.671875 -16.253906 8.703125 -16.109375 C 8.734375 -15.972656 8.75 -15.769531 8.75 -15.5 C 14.25 -17.882812 19.992188 -19.410156 25.984375 -20.078125 C 25.984375 -20.296875 25.984375 -20.457031 25.984375 -20.5625 C 25.984375 -20.675781 25.984375 -20.765625 25.984375 -20.828125 C 25.429688 -23.597656 24.875 -26.328125 24.3125 -29.015625 C 23.757812 -31.710938 23.179688 -34.425781 22.578125 -37.15625 C 22.296875 -38.320312 21.972656 -39.484375 21.609375 -40.640625 C 21.253906 -41.804688 20.878906 -42.945312 20.484375 -44.0625 C 20.378906 -44.445312 20.210938 -44.804688 19.984375 -45.140625 C 19.765625 -45.472656 19.429688 -45.753906 18.984375 -45.984375 Z M 12.75 -48.640625 C 13.414062 -49.253906 14.066406 -49.835938 14.703125 -50.390625 C 15.335938 -50.953125 15.988281 -51.507812 16.65625 -52.0625 C 17.269531 -52.675781 17.992188 -53.09375 18.828125 -53.3125 C 19.660156 -53.53125 20.460938 -53.75 21.234375 -53.96875 C 20.347656 -54.363281 19.472656 -54.460938 18.609375 -54.265625 C 17.753906 -54.066406 16.9375 -53.722656 16.15625 -53.234375 C 15.101562 -52.503906 14.253906 -51.738281 13.609375 -50.9375 C 12.972656 -50.132812 12.6875 -49.367188 12.75 -48.640625 Z M 29.984375 -8.75 C 29.929688 -7.800781 29.972656 -6.882812 30.109375 -6 C 30.242188 -5.113281 30.5625 -4.28125 31.0625 -3.5 C 31.289062 -3.21875 31.539062 -2.953125 31.8125 -2.703125 C 32.09375 -2.453125 32.375 -2.21875 32.65625 -2 C 32.875 -1.882812 33.132812 -1.8125 33.4375 -1.78125 C 33.75 -1.757812 34.097656 -1.859375 34.484375 -2.078125 C 32.929688 -2.691406 31.90625 -3.632812 31.40625 -4.90625 C 30.90625 -6.1875 30.429688 -7.46875 29.984375 -8.75 Z M 1.421875 -7.15625 C 1.023438 -6.382812 0.84375 -5.625 0.875 -4.875 C 0.90625 -4.125 1.113281 -3.359375 1.5 -2.578125 C 2 -1.472656 2.832031 -1.171875 4 -1.671875 C 2.832031 -2.273438 2.175781 -3.09375 2.03125 -4.125 C 1.894531 -5.15625 1.691406 -6.164062 1.421875 -7.15625 Z M 1.421875 -7.15625 "/></g></g><g style="fill:#f6d603;fill-opacity:1;"><g transform="translate(259.31608, 104.675356)"><path style="stroke:none" d=""/></g></g><g transform="matrix(1,0,0,1,52,102)"><g id="a295398326" clip-path="url(#b1cfcced0d)"><g clip-rule="nonzero" clip-path="url(#0d48a4f50b)"><g style="fill:#38b6ff;fill-opacity:1;"><g transform="translate(1.724126, 70.194571)"><path style="stroke:none" d="M 11.671875 -27.296875 C 11.785156 -24.660156 12.15625 -22.097656 12.78125 -19.609375 C 13.414062 -17.117188 14.363281 -14.722656 15.625 -12.421875 C 16.164062 -11.429688 16.941406 -10.644531 17.953125 -10.0625 C 18.972656 -9.488281 20.097656 -9.242188 21.328125 -9.328125 C 22.566406 -9.410156 23.734375 -9.972656 24.828125 -11.015625 C 25.921875 -12.003906 26.8125 -13.085938 27.5 -14.265625 C 28.1875 -15.441406 28.804688 -16.660156 29.359375 -17.921875 C 29.628906 -18.523438 29.957031 -19.03125 30.34375 -19.4375 C 30.726562 -19.851562 31.21875 -20.113281 31.8125 -20.21875 C 32.75 -20.4375 33.597656 -20.285156 34.359375 -19.765625 C 35.128906 -19.253906 35.625 -18.53125 35.84375 -17.59375 C 36.175781 -16.28125 36.148438 -15.078125 35.765625 -13.984375 C 35.429688 -12.660156 34.9375 -11.476562 34.28125 -10.4375 C 33.570312 -9.125 32.738281 -7.90625 31.78125 -6.78125 C 30.820312 -5.65625 29.710938 -4.628906 28.453125 -3.703125 C 24.285156 -0.523438 19.679688 0.1875 14.640625 -1.5625 C 10.859375 -2.9375 7.894531 -5.019531 5.75 -7.8125 C 3.613281 -10.601562 2.082031 -13.863281 1.15625 -17.59375 C -0.101562 -22.6875 -0.253906 -27.601562 0.703125 -32.34375 C 1.660156 -37.09375 3.5625 -41.628906 6.40625 -45.953125 C 7.664062 -47.816406 9.101562 -49.445312 10.71875 -50.84375 C 12.34375 -52.25 14.222656 -53.304688 16.359375 -54.015625 C 19.816406 -55.171875 23.21875 -55.144531 26.5625 -53.9375 C 28.144531 -53.332031 29.539062 -52.46875 30.75 -51.34375 C 31.957031 -50.21875 32.832031 -48.78125 33.375 -47.03125 C 33.757812 -45.875 33.757812 -44.773438 33.375 -43.734375 C 32.9375 -42.472656 32.117188 -41.816406 30.921875 -41.765625 C 29.597656 -41.597656 28.632812 -42.117188 28.03125 -43.328125 C 27.925781 -43.441406 27.816406 -43.660156 27.703125 -43.984375 C 26.773438 -45.460938 25.488281 -46.285156 23.84375 -46.453125 C 20.71875 -46.617188 18.28125 -45.492188 16.53125 -43.078125 C 15.269531 -41.546875 14.363281 -39.90625 13.8125 -38.15625 C 13.257812 -36.5625 12.789062 -34.941406 12.40625 -33.296875 C 12.03125 -31.648438 11.785156 -29.953125 11.671875 -28.203125 C 11.671875 -28.035156 11.671875 -27.882812 11.671875 -27.75 C 11.671875 -27.613281 11.671875 -27.460938 11.671875 -27.296875 Z M 15.703125 -3.125 C 14.773438 -3.726562 13.898438 -4.257812 13.078125 -4.71875 C 12.253906 -5.1875 11.457031 -5.695312 10.6875 -6.25 C 9.976562 -6.851562 9.28125 -7.484375 8.59375 -8.140625 C 7.90625 -8.796875 7.175781 -9.453125 6.40625 -10.109375 C 6.789062 -9.128906 7.488281 -8.085938 8.5 -6.984375 C 9.519531 -5.890625 10.6875 -4.972656 12 -4.234375 C 13.320312 -3.492188 14.554688 -3.125 15.703125 -3.125 Z M 17.765625 -52.78125 C 16.992188 -52.832031 16.046875 -52.597656 14.921875 -52.078125 C 13.796875 -51.554688 12.78125 -50.910156 11.875 -50.140625 C 10.976562 -49.378906 10.414062 -48.671875 10.1875 -48.015625 C 11.457031 -48.785156 12.707031 -49.566406 13.9375 -50.359375 C 15.164062 -51.148438 16.441406 -51.957031 17.765625 -52.78125 Z M 34.375 -18.578125 C 33.164062 -19.785156 32.148438 -19.894531 31.328125 -18.90625 C 30.941406 -18.519531 30.609375 -18.082031 30.328125 -17.59375 C 30.054688 -17.101562 29.785156 -16.640625 29.515625 -16.203125 C 29.460938 -16.085938 29.445312 -15.960938 29.46875 -15.828125 C 29.5 -15.691406 29.515625 -15.515625 29.515625 -15.296875 C 30.066406 -15.734375 30.519531 -16.238281 30.875 -16.8125 C 31.226562 -17.382812 31.664062 -17.863281 32.1875 -18.25 C 32.707031 -18.632812 33.4375 -18.742188 34.375 -18.578125 Z M 32.46875 -44.0625 C 31.320312 -43.6875 30.457031 -43.8125 29.875 -44.4375 C 29.300781 -45.070312 28.660156 -45.660156 27.953125 -46.203125 C 28.222656 -44.722656 28.894531 -43.75 29.96875 -43.28125 C 31.039062 -42.820312 31.875 -43.082031 32.46875 -44.0625 Z M 32.46875 -44.0625 "/></g></g></g><g style="fill:#38b6ff;fill-opacity:1;"><g transform="translate(40.281657, 70.194571)"><path style="stroke:none" d="M 27.703125 -9.296875 C 26.171875 -9.296875 24.664062 -9.1875 23.1875 -8.96875 C 21.707031 -8.75 20.253906 -8.5 18.828125 -8.21875 C 17.015625 -7.832031 15.191406 -7.445312 13.359375 -7.0625 C 11.523438 -6.6875 9.703125 -6.304688 7.890625 -5.921875 C 7.015625 -5.753906 6.550781 -5.285156 6.5 -4.515625 C 6.4375 -4.242188 6.378906 -3.957031 6.328125 -3.65625 C 6.273438 -3.351562 6.191406 -3.066406 6.078125 -2.796875 C 5.585938 -1.046875 4.492188 -0.25 2.796875 -0.40625 C 2.085938 -0.46875 1.484375 -0.757812 0.984375 -1.28125 C 0.492188 -1.800781 0.191406 -2.46875 0.078125 -3.28125 C 0.0234375 -4 0.0078125 -4.710938 0.03125 -5.421875 C 0.0625 -6.140625 0.109375 -6.851562 0.171875 -7.5625 C 0.546875 -11.175781 0.925781 -14.929688 1.3125 -18.828125 C 1.695312 -22.722656 2.269531 -26.613281 3.03125 -30.5 C 3.800781 -34.394531 4.925781 -38.109375 6.40625 -41.640625 C 7.894531 -45.179688 9.898438 -48.375 12.421875 -51.21875 C 13.179688 -52.09375 14 -52.859375 14.875 -53.515625 C 15.757812 -54.179688 16.773438 -54.648438 17.921875 -54.921875 C 18.859375 -55.191406 19.765625 -55.226562 20.640625 -55.03125 C 21.515625 -54.84375 22.363281 -54.503906 23.1875 -54.015625 C 24.5 -53.304688 25.617188 -52.414062 26.546875 -51.34375 C 27.484375 -50.28125 28.28125 -49.085938 28.9375 -47.765625 C 30.632812 -44.535156 31.921875 -40.988281 32.796875 -37.125 C 33.679688 -33.257812 34.453125 -29.519531 35.109375 -25.90625 C 35.710938 -22.5625 36.125 -19.160156 36.34375 -15.703125 C 36.5625 -12.253906 36.585938 -8.828125 36.421875 -5.421875 C 36.367188 -4.984375 36.300781 -4.515625 36.21875 -4.015625 C 36.132812 -3.523438 36.007812 -3.0625 35.84375 -2.625 C 35.300781 -1.257812 34.234375 -0.578125 32.640625 -0.578125 C 31.046875 -0.578125 29.976562 -1.257812 29.4375 -2.625 C 29.269531 -3.0625 29.128906 -3.515625 29.015625 -3.984375 C 28.910156 -4.453125 28.800781 -4.878906 28.6875 -5.265625 C 28.53125 -5.921875 28.367188 -6.578125 28.203125 -7.234375 C 28.035156 -7.890625 27.867188 -8.578125 27.703125 -9.296875 Z M 18.75 -45.390625 C 18.582031 -45.171875 18.398438 -44.976562 18.203125 -44.8125 C 18.015625 -44.644531 17.835938 -44.453125 17.671875 -44.234375 C 16.796875 -43.023438 16 -41.773438 15.28125 -40.484375 C 14.570312 -39.203125 13.945312 -37.847656 13.40625 -36.421875 C 12.144531 -33.191406 11.15625 -29.875 10.4375 -26.46875 C 9.726562 -23.070312 9.097656 -19.648438 8.546875 -16.203125 C 8.546875 -16.140625 8.5625 -16.039062 8.59375 -15.90625 C 8.625 -15.769531 8.640625 -15.566406 8.640625 -15.296875 C 14.054688 -17.648438 19.726562 -19.15625 25.65625 -19.8125 C 25.65625 -20.03125 25.65625 -20.191406 25.65625 -20.296875 C 25.65625 -20.410156 25.65625 -20.492188 25.65625 -20.546875 C 25.101562 -23.296875 24.550781 -26 24 -28.65625 C 23.457031 -31.3125 22.882812 -33.984375 22.28125 -36.671875 C 22.007812 -37.816406 21.691406 -38.960938 21.328125 -40.109375 C 20.972656 -41.265625 20.601562 -42.394531 20.21875 -43.5 C 20.113281 -43.875 19.953125 -44.226562 19.734375 -44.5625 C 19.515625 -44.894531 19.1875 -45.171875 18.75 -45.390625 Z M 12.578125 -48.015625 C 13.234375 -48.617188 13.875 -49.191406 14.5 -49.734375 C 15.132812 -50.285156 15.78125 -50.835938 16.4375 -51.390625 C 17.039062 -51.992188 17.753906 -52.40625 18.578125 -52.625 C 19.398438 -52.84375 20.195312 -53.0625 20.96875 -53.28125 C 20.09375 -53.664062 19.226562 -53.757812 18.375 -53.5625 C 17.519531 -53.375 16.710938 -53.03125 15.953125 -52.53125 C 14.910156 -51.820312 14.070312 -51.066406 13.4375 -50.265625 C 12.8125 -49.472656 12.523438 -48.722656 12.578125 -48.015625 Z M 29.59375 -8.640625 C 29.539062 -7.703125 29.582031 -6.796875 29.71875 -5.921875 C 29.851562 -5.046875 30.171875 -4.222656 30.671875 -3.453125 C 30.890625 -3.179688 31.132812 -2.921875 31.40625 -2.671875 C 31.675781 -2.421875 31.953125 -2.1875 32.234375 -1.96875 C 32.453125 -1.863281 32.710938 -1.796875 33.015625 -1.765625 C 33.316406 -1.742188 33.65625 -1.84375 34.03125 -2.0625 C 32.5 -2.65625 31.484375 -3.582031 30.984375 -4.84375 C 30.492188 -6.101562 30.03125 -7.367188 29.59375 -8.640625 Z M 1.390625 -7.078125 C 1.015625 -6.304688 0.835938 -5.550781 0.859375 -4.8125 C 0.890625 -4.070312 1.097656 -3.316406 1.484375 -2.546875 C 1.972656 -1.453125 2.796875 -1.148438 3.953125 -1.640625 C 2.796875 -2.242188 2.148438 -3.050781 2.015625 -4.0625 C 1.878906 -5.082031 1.671875 -6.085938 1.390625 -7.078125 Z M 1.390625 -7.078125 "/></g></g><g style="fill:#38b6ff;fill-opacity:1;"><g transform="translate(79.332454, 70.194571)"><path style="stroke:none" d="M 11.265625 -11.09375 C 11.535156 -11.15625 11.765625 -11.171875 11.953125 -11.140625 C 12.148438 -11.109375 12.359375 -11.125 12.578125 -11.1875 C 17.347656 -12.445312 21.378906 -14.828125 24.671875 -18.328125 C 27.628906 -21.515625 29.050781 -25.300781 28.9375 -29.6875 C 28.882812 -32.09375 28.421875 -34.320312 27.546875 -36.375 C 26.671875 -38.4375 25.351562 -40.257812 23.59375 -41.84375 C 22.0625 -43.269531 20.40625 -44.503906 18.625 -45.546875 C 16.84375 -46.585938 14.882812 -47.273438 12.75 -47.609375 C 12.414062 -47.710938 12.140625 -47.765625 11.921875 -47.765625 C 10.328125 -48.203125 9.53125 -49.132812 9.53125 -50.5625 C 9.425781 -51.988281 10.140625 -52.976562 11.671875 -53.53125 C 12.492188 -53.800781 13.316406 -53.976562 14.140625 -54.0625 C 14.960938 -54.144531 15.785156 -54.128906 16.609375 -54.015625 C 19.347656 -53.578125 21.960938 -52.8125 24.453125 -51.71875 C 26.953125 -50.625 29.21875 -49.085938 31.25 -47.109375 C 34.8125 -43.710938 37.082031 -39.601562 38.0625 -34.78125 C 38.71875 -31.757812 38.9375 -28.78125 38.71875 -25.84375 C 38.5 -22.914062 37.679688 -20.054688 36.265625 -17.265625 C 35.109375 -15.078125 33.679688 -13.117188 31.984375 -11.390625 C 30.285156 -9.660156 28.394531 -8.140625 26.3125 -6.828125 C 23.84375 -5.285156 21.28125 -4.0625 18.625 -3.15625 C 15.96875 -2.257812 13.1875 -1.671875 10.28125 -1.390625 C 9.726562 -1.335938 9.132812 -1.320312 8.5 -1.34375 C 7.875 -1.375 7.257812 -1.421875 6.65625 -1.484375 C 4.90625 -1.648438 3.492188 -2.28125 2.421875 -3.375 C 1.359375 -4.46875 0.742188 -5.8125 0.578125 -7.40625 C 0.359375 -8.769531 0.21875 -10.164062 0.15625 -11.59375 C 0.101562 -13.019531 0.0507812 -14.414062 0 -15.78125 C 0 -17.15625 0.0234375 -18.515625 0.078125 -19.859375 C 0.140625 -21.203125 0.195312 -22.554688 0.25 -23.921875 C 0.351562 -26.503906 0.421875 -29.09375 0.453125 -31.6875 C 0.484375 -34.289062 0.523438 -36.882812 0.578125 -39.46875 C 0.628906 -41.21875 0.707031 -42.96875 0.8125 -44.71875 C 0.925781 -46.476562 1.039062 -48.207031 1.15625 -49.90625 C 1.257812 -50.832031 1.613281 -51.539062 2.21875 -52.03125 C 2.820312 -52.53125 3.5625 -52.726562 4.4375 -52.625 C 5.644531 -52.457031 6.46875 -51.632812 6.90625 -50.15625 C 7.34375 -48.613281 7.671875 -47.046875 7.890625 -45.453125 C 8.109375 -43.867188 8.328125 -42.285156 8.546875 -40.703125 C 8.765625 -38.941406 8.96875 -37.171875 9.15625 -35.390625 C 9.351562 -33.609375 9.507812 -31.84375 9.625 -30.09375 C 9.894531 -27.238281 10.125 -24.375 10.3125 -21.5 C 10.507812 -18.625 10.71875 -15.734375 10.9375 -12.828125 C 10.988281 -12.609375 11.039062 -12.347656 11.09375 -12.046875 C 11.15625 -11.742188 11.210938 -11.425781 11.265625 -11.09375 Z M 1.8125 -9.125 C 1.757812 -8.132812 1.910156 -7.203125 2.265625 -6.328125 C 2.617188 -5.453125 3.179688 -4.710938 3.953125 -4.109375 C 5.367188 -2.898438 7.117188 -2.546875 9.203125 -3.046875 C 8.222656 -3.367188 7.414062 -3.613281 6.78125 -3.78125 C 6.15625 -3.945312 5.59375 -4.164062 5.09375 -4.4375 C 4.601562 -4.707031 4.109375 -5.195312 3.609375 -5.90625 C 3.117188 -6.625 2.519531 -7.695312 1.8125 -9.125 Z M 2.46875 -47.515625 C 2.632812 -47.960938 2.769531 -48.390625 2.875 -48.796875 C 2.988281 -49.203125 3.15625 -49.570312 3.375 -49.90625 C 3.59375 -50.175781 3.863281 -50.421875 4.1875 -50.640625 C 4.519531 -50.859375 4.851562 -51.078125 5.1875 -51.296875 C 4.300781 -51.742188 3.585938 -51.691406 3.046875 -51.140625 C 2.054688 -50.265625 1.863281 -49.054688 2.46875 -47.515625 Z M 14.21875 -48.75 C 13.832031 -49.03125 13.460938 -49.25 13.109375 -49.40625 C 12.753906 -49.570312 12.441406 -49.765625 12.171875 -49.984375 C 11.953125 -50.265625 11.757812 -50.582031 11.59375 -50.9375 C 11.425781 -51.289062 11.234375 -51.660156 11.015625 -52.046875 C 10.523438 -51.328125 10.550781 -50.5625 11.09375 -49.75 C 11.644531 -48.757812 12.6875 -48.425781 14.21875 -48.75 Z M 14.21875 -48.75 "/></g></g><g style="fill:#38b6ff;fill-opacity:1;"><g transform="translate(120.685205, 70.194571)"><path style="stroke:none" d="M 7.734375 -46.125 C 8.003906 -41.957031 8.273438 -37.832031 8.546875 -33.75 C 8.828125 -29.664062 9.078125 -25.566406 9.296875 -21.453125 C 9.566406 -21.566406 9.78125 -21.648438 9.9375 -21.703125 C 10.101562 -21.753906 10.269531 -21.8125 10.4375 -21.875 C 12.351562 -23.070312 14.335938 -23.875 16.390625 -24.28125 C 18.453125 -24.695312 20.550781 -25.046875 22.6875 -25.328125 C 23.34375 -25.429688 24.015625 -25.441406 24.703125 -25.359375 C 25.390625 -25.273438 26.035156 -25.046875 26.640625 -24.671875 C 28.609375 -23.410156 29.320312 -21.679688 28.78125 -19.484375 C 28.5 -18.492188 27.921875 -17.679688 27.046875 -17.046875 C 26.171875 -16.421875 25.160156 -16.054688 24.015625 -15.953125 C 22.972656 -15.898438 21.929688 -15.832031 20.890625 -15.75 C 19.847656 -15.664062 18.804688 -15.539062 17.765625 -15.375 C 16.554688 -15.15625 15.375 -14.878906 14.21875 -14.546875 C 13.070312 -14.222656 11.953125 -13.785156 10.859375 -13.234375 C 10.304688 -12.960938 10.03125 -12.703125 10.03125 -12.453125 C 10.03125 -12.210938 10.054688 -11.867188 10.109375 -11.421875 C 10.222656 -11.046875 10.359375 -10.757812 10.515625 -10.5625 C 10.679688 -10.375 11.015625 -10.28125 11.515625 -10.28125 C 13.597656 -10.28125 15.664062 -10.289062 17.71875 -10.3125 C 19.769531 -10.34375 21.835938 -10.332031 23.921875 -10.28125 C 24.796875 -10.28125 25.660156 -10.25 26.515625 -10.1875 C 27.367188 -10.132812 28.234375 -10.054688 29.109375 -9.953125 C 29.984375 -9.890625 30.832031 -9.640625 31.65625 -9.203125 C 32.914062 -8.492188 33.554688 -7.453125 33.578125 -6.078125 C 33.609375 -4.710938 32.992188 -3.671875 31.734375 -2.953125 C 30.804688 -2.359375 29.789062 -2.0625 28.6875 -2.0625 C 26.445312 -1.945312 24.226562 -1.710938 22.03125 -1.359375 C 19.84375 -1.003906 17.625 -0.660156 15.375 -0.328125 C 12.582031 0.00390625 9.925781 -0.101562 7.40625 -0.65625 C 5.257812 -1.09375 3.625 -1.925781 2.5 -3.15625 C 1.382812 -4.394531 0.660156 -6.109375 0.328125 -8.296875 C 0.222656 -8.960938 0.140625 -9.632812 0.078125 -10.3125 C 0.0234375 -11 0 -11.703125 0 -12.421875 C 0 -16.140625 0.0078125 -19.875 0.03125 -23.625 C 0.0625 -27.382812 0.109375 -31.128906 0.171875 -34.859375 C 0.222656 -36.773438 0.289062 -38.691406 0.375 -40.609375 C 0.457031 -42.535156 0.523438 -44.457031 0.578125 -46.375 C 0.578125 -46.695312 0.628906 -47.078125 0.734375 -47.515625 C 0.953125 -49.710938 2.078125 -51.222656 4.109375 -52.046875 C 5.203125 -52.535156 6.320312 -52.929688 7.46875 -53.234375 C 8.625 -53.535156 9.804688 -53.796875 11.015625 -54.015625 C 13.429688 -54.453125 15.859375 -54.796875 18.296875 -55.046875 C 20.734375 -55.296875 23.1875 -55.363281 25.65625 -55.25 C 26.195312 -55.25 26.742188 -55.222656 27.296875 -55.171875 C 27.847656 -55.117188 28.394531 -55.035156 28.9375 -54.921875 C 29.976562 -54.753906 30.851562 -54.34375 31.5625 -53.6875 C 32.28125 -53.03125 32.722656 -52.234375 32.890625 -51.296875 C 33.160156 -49.765625 32.816406 -48.4375 31.859375 -47.3125 C 30.898438 -46.1875 29.597656 -45.65625 27.953125 -45.71875 C 27.734375 -45.71875 27.484375 -45.726562 27.203125 -45.75 C 26.929688 -45.78125 26.660156 -45.820312 26.390625 -45.875 C 24.859375 -46.3125 23.320312 -46.53125 21.78125 -46.53125 C 20.25 -46.53125 18.6875 -46.53125 17.09375 -46.53125 C 15.894531 -46.476562 14.703125 -46.453125 13.515625 -46.453125 C 12.335938 -46.453125 11.148438 -46.425781 9.953125 -46.375 C 9.566406 -46.375 9.191406 -46.34375 8.828125 -46.28125 C 8.472656 -46.226562 8.109375 -46.175781 7.734375 -46.125 Z M 8.640625 -2.390625 C 7.816406 -2.929688 6.992188 -3.445312 6.171875 -3.9375 C 5.347656 -4.4375 4.632812 -5.125 4.03125 -6 C 3.425781 -6.820312 2.984375 -7.722656 2.703125 -8.703125 C 2.429688 -9.691406 2.160156 -10.707031 1.890625 -11.75 C 1.453125 -10.550781 1.503906 -9.195312 2.046875 -7.6875 C 2.597656 -6.175781 3.476562 -4.882812 4.6875 -3.8125 C 5.894531 -2.75 7.210938 -2.273438 8.640625 -2.390625 Z M 2.390625 -46.375 C 2.660156 -46.863281 2.875 -47.367188 3.03125 -47.890625 C 3.195312 -48.410156 3.445312 -48.863281 3.78125 -49.25 C 4.050781 -49.6875 4.40625 -50.066406 4.84375 -50.390625 C 5.289062 -50.722656 5.703125 -51.082031 6.078125 -51.46875 C 4.816406 -51.519531 3.773438 -50.96875 2.953125 -49.8125 C 2.140625 -48.664062 1.953125 -47.519531 2.390625 -46.375 Z M 27.796875 -3.53125 C 28.992188 -2.988281 30.171875 -3.289062 31.328125 -4.4375 C 32.148438 -5.257812 32.394531 -6.082031 32.0625 -6.90625 C 31.675781 -5.863281 31.054688 -5.164062 30.203125 -4.8125 C 29.359375 -4.457031 28.554688 -4.03125 27.796875 -3.53125 Z M 25.65625 -47.359375 C 26.257812 -46.972656 26.804688 -46.789062 27.296875 -46.8125 C 27.785156 -46.84375 28.28125 -46.914062 28.78125 -47.03125 C 29.21875 -47.132812 29.613281 -47.28125 29.96875 -47.46875 C 30.320312 -47.664062 30.582031 -47.957031 30.75 -48.34375 C 29.925781 -48.175781 29.101562 -48.023438 28.28125 -47.890625 C 27.457031 -47.753906 26.582031 -47.578125 25.65625 -47.359375 Z M 22.28125 -17.515625 C 23.539062 -17.296875 24.59375 -17.375 25.4375 -17.75 C 26.289062 -18.132812 26.800781 -18.769531 26.96875 -19.65625 C 26.257812 -19.320312 25.519531 -18.988281 24.75 -18.65625 C 23.976562 -18.332031 23.15625 -17.953125 22.28125 -17.515625 Z M 22.28125 -17.515625 "/></g></g><g style="fill:#38b6ff;fill-opacity:1;"><g transform="translate(156.77636, 70.194571)"><path style="stroke:none" d="M 14.71875 -28.9375 C 14.664062 -28.664062 14.582031 -28.40625 14.46875 -28.15625 C 14.363281 -27.914062 14.253906 -27.65625 14.140625 -27.375 C 13.097656 -24.53125 12.054688 -21.664062 11.015625 -18.78125 C 9.972656 -15.90625 8.90625 -13.015625 7.8125 -10.109375 C 7.695312 -9.722656 7.546875 -9.335938 7.359375 -8.953125 C 7.171875 -8.578125 6.960938 -8.222656 6.734375 -7.890625 C 5.703125 -6.242188 4.390625 -5.640625 2.796875 -6.078125 C 1.316406 -6.410156 0.441406 -7.507812 0.171875 -9.375 C 0.0546875 -10.25 0.0507812 -11.097656 0.15625 -11.921875 C 0.269531 -12.742188 0.382812 -13.59375 0.5 -14.46875 C 1.257812 -18.414062 2.132812 -22.347656 3.125 -26.265625 C 4.113281 -30.179688 5.289062 -34.0625 6.65625 -37.90625 C 7.15625 -39.332031 7.703125 -40.726562 8.296875 -42.09375 C 8.898438 -43.46875 9.585938 -44.8125 10.359375 -46.125 C 10.847656 -46.945312 11.4375 -47.628906 12.125 -48.171875 C 12.8125 -48.722656 13.675781 -49.082031 14.71875 -49.25 C 17.019531 -49.519531 18.773438 -48.722656 19.984375 -46.859375 C 20.523438 -46.097656 20.960938 -45.25 21.296875 -44.3125 C 22.722656 -40.363281 23.816406 -36.28125 24.578125 -32.0625 C 24.859375 -30.476562 25.117188 -28.890625 25.359375 -27.296875 C 25.609375 -25.703125 25.867188 -24.113281 26.140625 -22.53125 C 26.203125 -22.3125 26.257812 -22.101562 26.3125 -21.90625 C 26.363281 -21.71875 26.472656 -21.515625 26.640625 -21.296875 C 26.859375 -21.617188 27.050781 -22.054688 27.21875 -22.609375 C 28.476562 -26.222656 29.738281 -29.835938 31 -33.453125 C 32.257812 -37.078125 33.492188 -40.722656 34.703125 -44.390625 C 35.242188 -45.929688 35.867188 -47.410156 36.578125 -48.828125 C 37.296875 -50.253906 38.175781 -51.570312 39.21875 -52.78125 C 40.144531 -53.875 41.1875 -54.585938 42.34375 -54.921875 C 44.257812 -55.410156 45.875 -55 47.1875 -53.6875 C 47.789062 -53.132812 48.296875 -52.488281 48.703125 -51.75 C 49.117188 -51.007812 49.4375 -50.257812 49.65625 -49.5 C 50.15625 -48.070312 50.539062 -46.628906 50.8125 -45.171875 C 51.082031 -43.722656 51.328125 -42.257812 51.546875 -40.78125 C 51.828125 -38.582031 52.15625 -36.390625 52.53125 -34.203125 C 52.914062 -32.015625 53.21875 -29.796875 53.4375 -27.546875 C 53.71875 -24.804688 53.976562 -22.035156 54.21875 -19.234375 C 54.46875 -16.441406 54.703125 -13.675781 54.921875 -10.9375 C 54.972656 -10.550781 55.015625 -10.148438 55.046875 -9.734375 C 55.078125 -9.328125 55.117188 -8.90625 55.171875 -8.46875 C 55.335938 -7.257812 55.171875 -6.082031 54.671875 -4.9375 C 53.691406 -2.570312 52.050781 -1.3125 49.75 -1.15625 C 48.59375 -1.09375 47.5625 -1.320312 46.65625 -1.84375 C 45.75 -2.363281 44.992188 -3.117188 44.390625 -4.109375 C 43.898438 -4.984375 43.570312 -6 43.40625 -7.15625 C 43.1875 -9.5625 42.941406 -11.984375 42.671875 -14.421875 C 42.398438 -16.867188 42.15625 -19.320312 41.9375 -21.78125 C 41.769531 -23.925781 41.628906 -26.078125 41.515625 -28.234375 C 41.410156 -30.398438 41.300781 -32.582031 41.1875 -34.78125 C 41.1875 -35 41.171875 -35.21875 41.140625 -35.4375 C 41.117188 -35.65625 41.082031 -35.898438 41.03125 -36.171875 C 40.75 -35.953125 40.566406 -35.734375 40.484375 -35.515625 C 40.410156 -35.296875 40.34375 -35.078125 40.28125 -34.859375 C 39.40625 -32.117188 38.539062 -29.363281 37.6875 -26.59375 C 36.84375 -23.832031 35.984375 -21.078125 35.109375 -18.328125 C 34.503906 -16.359375 33.898438 -14.398438 33.296875 -12.453125 C 32.691406 -10.503906 32.085938 -8.546875 31.484375 -6.578125 C 30.992188 -4.984375 30.363281 -3.476562 29.59375 -2.0625 C 28.988281 -1.019531 28.179688 -0.28125 27.171875 0.15625 C 26.160156 0.601562 25.109375 0.6875 24.015625 0.40625 C 23.410156 0.25 22.875 -0.0195312 22.40625 -0.40625 C 21.9375 -0.789062 21.507812 -1.257812 21.125 -1.8125 C 20.582031 -2.632812 20.171875 -3.507812 19.890625 -4.4375 C 19.617188 -5.375 19.375 -6.304688 19.15625 -7.234375 C 18.820312 -8.878906 18.519531 -10.535156 18.25 -12.203125 C 17.976562 -13.878906 17.675781 -15.566406 17.34375 -17.265625 C 17.070312 -19.015625 16.757812 -20.765625 16.40625 -22.515625 C 16.050781 -24.273438 15.707031 -26.003906 15.375 -27.703125 C 15.320312 -27.921875 15.265625 -28.125 15.203125 -28.3125 C 15.148438 -28.507812 15.097656 -28.71875 15.046875 -28.9375 C 14.992188 -28.9375 14.953125 -28.9375 14.921875 -28.9375 C 14.890625 -28.9375 14.820312 -28.9375 14.71875 -28.9375 Z M 16.859375 -47.28125 C 16.640625 -47.65625 16.421875 -47.867188 16.203125 -47.921875 C 15.984375 -47.984375 15.734375 -47.988281 15.453125 -47.9375 C 14.847656 -47.820312 14.300781 -47.65625 13.8125 -47.4375 C 12.601562 -46.726562 11.65625 -45.8125 10.96875 -44.6875 C 10.289062 -43.5625 9.785156 -42.34375 9.453125 -41.03125 C 9.453125 -41.03125 9.535156 -40.8125 9.703125 -40.375 C 9.972656 -40.8125 10.234375 -41.21875 10.484375 -41.59375 C 10.734375 -41.976562 10.96875 -42.363281 11.1875 -42.75 C 11.894531 -43.84375 12.644531 -44.828125 13.4375 -45.703125 C 14.238281 -46.585938 15.378906 -47.113281 16.859375 -47.28125 Z M 45.21875 -10.53125 C 45.113281 -10.46875 45.03125 -10.4375 44.96875 -10.4375 C 44.914062 -10.4375 44.890625 -10.4375 44.890625 -10.4375 C 44.785156 -10.21875 44.734375 -10.082031 44.734375 -10.03125 C 44.503906 -7.675781 45.160156 -5.617188 46.703125 -3.859375 C 46.972656 -3.640625 47.269531 -3.429688 47.59375 -3.234375 C 47.925781 -3.046875 48.257812 -2.875 48.59375 -2.71875 C 48.8125 -2.65625 49.054688 -2.625 49.328125 -2.625 C 49.609375 -2.625 49.882812 -2.789062 50.15625 -3.125 C 48.507812 -3.894531 47.34375 -4.921875 46.65625 -6.203125 C 45.96875 -7.492188 45.488281 -8.9375 45.21875 -10.53125 Z M 37.15625 -45.71875 C 37.375 -45.601562 37.484375 -45.546875 37.484375 -45.546875 C 37.597656 -45.710938 37.707031 -45.847656 37.8125 -45.953125 C 37.925781 -46.066406 38.007812 -46.207031 38.0625 -46.375 C 38.34375 -46.8125 38.601562 -47.25 38.84375 -47.6875 C 39.09375 -48.125 39.328125 -48.5625 39.546875 -49 C 40.035156 -49.875 40.59375 -50.679688 41.21875 -51.421875 C 41.851562 -52.160156 42.640625 -52.722656 43.578125 -53.109375 C 43.628906 -53.109375 43.664062 -53.148438 43.6875 -53.234375 C 43.71875 -53.316406 43.765625 -53.382812 43.828125 -53.4375 C 43.390625 -53.601562 43.097656 -53.695312 42.953125 -53.71875 C 42.816406 -53.75 42.613281 -53.6875 42.34375 -53.53125 C 41.957031 -53.3125 41.585938 -53.0625 41.234375 -52.78125 C 40.878906 -52.507812 40.5625 -52.238281 40.28125 -51.96875 C 39.570312 -51.195312 38.984375 -50.34375 38.515625 -49.40625 C 38.054688 -48.476562 37.632812 -47.519531 37.25 -46.53125 C 37.1875 -46.425781 37.171875 -46.289062 37.203125 -46.125 C 37.234375 -45.957031 37.21875 -45.820312 37.15625 -45.71875 Z M 21.453125 -8.71875 C 21.566406 -7.507812 21.773438 -6.359375 22.078125 -5.265625 C 22.378906 -4.171875 22.882812 -3.15625 23.59375 -2.21875 C 23.925781 -1.832031 24.320312 -1.554688 24.78125 -1.390625 C 25.25 -1.234375 25.734375 -1.125 26.234375 -1.0625 C 26.335938 -1.007812 26.457031 -1.035156 26.59375 -1.140625 C 26.726562 -1.253906 26.960938 -1.335938 27.296875 -1.390625 C 26.085938 -1.890625 25.164062 -2.550781 24.53125 -3.375 C 23.90625 -4.195312 23.375 -5.085938 22.9375 -6.046875 C 22.5 -7.003906 22.003906 -7.894531 21.453125 -8.71875 Z M 2.21875 -14.546875 C 1.507812 -13.617188 1.207031 -12.492188 1.3125 -11.171875 C 1.425781 -9.859375 1.835938 -8.847656 2.546875 -8.140625 C 2.816406 -7.921875 3.0625 -7.726562 3.28125 -7.5625 C 3.507812 -7.394531 3.785156 -7.367188 4.109375 -7.484375 C 3.835938 -8.085938 3.550781 -8.660156 3.25 -9.203125 C 2.945312 -9.753906 2.710938 -10.304688 2.546875 -10.859375 C 2.378906 -11.453125 2.296875 -12.0625 2.296875 -12.6875 C 2.296875 -13.320312 2.269531 -13.941406 2.21875 -14.546875 Z M 2.21875 -14.546875 "/></g></g><g style="fill:#38b6ff;fill-opacity:1;"><g transform="translate(214.489354, 70.194571)"><path style="stroke:none" d="M 31.484375 -19.328125 C 31.328125 -19.160156 31.164062 -19.003906 31 -18.859375 C 30.832031 -18.722656 30.691406 -18.578125 30.578125 -18.421875 C 28.273438 -16.222656 25.769531 -14.835938 23.0625 -14.265625 C 20.351562 -13.691406 17.488281 -13.84375 14.46875 -14.71875 C 11.894531 -15.488281 9.726562 -16.734375 7.96875 -18.453125 C 6.21875 -20.179688 4.710938 -22.195312 3.453125 -24.5 C 1.148438 -28.882812 0 -33.570312 0 -38.5625 C 0 -40.8125 0.160156 -43.046875 0.484375 -45.265625 C 0.816406 -47.484375 1.367188 -49.6875 2.140625 -51.875 C 2.304688 -52.375 2.507812 -52.851562 2.75 -53.3125 C 3 -53.78125 3.316406 -54.207031 3.703125 -54.59375 C 4.460938 -55.363281 5.363281 -55.707031 6.40625 -55.625 C 7.445312 -55.539062 8.300781 -55.0625 8.96875 -54.1875 C 9.34375 -53.632812 9.613281 -53.070312 9.78125 -52.5 C 9.945312 -51.925781 10.054688 -51.335938 10.109375 -50.734375 C 10.273438 -49.523438 10.425781 -48.316406 10.5625 -47.109375 C 10.695312 -45.898438 10.847656 -44.695312 11.015625 -43.5 C 11.128906 -42.675781 11.253906 -41.835938 11.390625 -40.984375 C 11.523438 -40.140625 11.703125 -39.304688 11.921875 -38.484375 C 12.359375 -36.617188 12.945312 -34.820312 13.6875 -33.09375 C 14.425781 -31.363281 15.34375 -29.707031 16.4375 -28.125 C 16.71875 -27.738281 17.035156 -27.378906 17.390625 -27.046875 C 17.742188 -26.722656 18.113281 -26.421875 18.5 -26.140625 C 18.9375 -25.816406 19.347656 -25.65625 19.734375 -25.65625 C 21.210938 -25.4375 22.582031 -25.515625 23.84375 -25.890625 C 25.101562 -26.273438 26.117188 -27.15625 26.890625 -28.53125 C 27.597656 -29.738281 28.265625 -30.957031 28.890625 -32.1875 C 29.523438 -33.414062 30.117188 -34.660156 30.671875 -35.921875 C 31.492188 -37.953125 32.242188 -40.007812 32.921875 -42.09375 C 33.609375 -44.175781 34.144531 -46.285156 34.53125 -48.421875 C 34.695312 -49.359375 34.832031 -50.304688 34.9375 -51.265625 C 35.050781 -52.222656 35.191406 -53.164062 35.359375 -54.09375 C 35.410156 -54.476562 35.460938 -54.863281 35.515625 -55.25 C 35.566406 -55.632812 35.625 -56.019531 35.6875 -56.40625 C 36.125 -58.425781 37.273438 -59.492188 39.140625 -59.609375 C 39.960938 -59.660156 40.710938 -59.4375 41.390625 -58.9375 C 42.078125 -58.445312 42.53125 -57.710938 42.75 -56.734375 C 43.40625 -54.265625 43.898438 -51.769531 44.234375 -49.25 C 44.785156 -45.414062 45.0625 -41.550781 45.0625 -37.65625 C 45.0625 -33.757812 44.757812 -29.867188 44.15625 -25.984375 C 43.9375 -24.609375 43.726562 -23.234375 43.53125 -21.859375 C 43.34375 -20.492188 43.109375 -19.097656 42.828125 -17.671875 C 41.847656 -12.242188 39.820312 -7.367188 36.75 -3.046875 C 35.875 -1.835938 34.925781 -0.703125 33.90625 0.359375 C 32.894531 1.429688 31.675781 2.296875 30.25 2.953125 C 29.207031 3.503906 28.148438 3.789062 27.078125 3.8125 C 26.015625 3.84375 24.9375 3.664062 23.84375 3.28125 C 21.8125 2.625 20.851562 1.3125 20.96875 -0.65625 C 21.019531 -1.476562 21.304688 -2.191406 21.828125 -2.796875 C 22.347656 -3.398438 23.019531 -3.703125 23.84375 -3.703125 C 25.21875 -3.753906 26.203125 -4.359375 26.796875 -5.515625 C 27.347656 -6.492188 27.894531 -7.476562 28.4375 -8.46875 C 28.988281 -9.457031 29.457031 -10.472656 29.84375 -11.515625 C 30.28125 -12.609375 30.632812 -13.71875 30.90625 -14.84375 C 31.1875 -15.96875 31.460938 -17.101562 31.734375 -18.25 C 31.785156 -18.414062 31.8125 -18.71875 31.8125 -19.15625 C 31.757812 -19.207031 31.707031 -19.234375 31.65625 -19.234375 C 31.601562 -19.234375 31.546875 -19.265625 31.484375 -19.328125 Z M 21.375 -16.53125 C 21.320312 -16.632812 21.28125 -16.710938 21.25 -16.765625 C 21.226562 -16.828125 21.21875 -16.859375 21.21875 -16.859375 C 21 -16.910156 20.789062 -16.945312 20.59375 -16.96875 C 20.40625 -17 20.226562 -17.015625 20.0625 -17.015625 C 15.726562 -17.347656 12.191406 -19.160156 9.453125 -22.453125 C 8.910156 -23.046875 8.40625 -23.671875 7.9375 -24.328125 C 7.46875 -24.992188 6.988281 -25.65625 6.5 -26.3125 C 6.4375 -26.414062 6.335938 -26.535156 6.203125 -26.671875 C 6.066406 -26.816406 5.945312 -26.96875 5.84375 -27.125 C 5.625 -27.019531 5.515625 -26.96875 5.515625 -26.96875 C 5.566406 -26.75 5.617188 -26.53125 5.671875 -26.3125 C 5.722656 -26.09375 5.804688 -25.875 5.921875 -25.65625 C 7.015625 -23.238281 8.492188 -21.238281 10.359375 -19.65625 C 11.566406 -18.613281 12.851562 -17.75 14.21875 -17.0625 C 15.59375 -16.375 17.046875 -15.976562 18.578125 -15.875 C 19.078125 -15.8125 19.570312 -15.804688 20.0625 -15.859375 C 20.550781 -15.921875 20.988281 -16.144531 21.375 -16.53125 Z M 6.5 -54.015625 C 6.4375 -54.066406 6.390625 -54.109375 6.359375 -54.140625 C 6.335938 -54.171875 6.300781 -54.210938 6.25 -54.265625 C 5.425781 -54.097656 4.796875 -53.710938 4.359375 -53.109375 C 3.921875 -52.503906 3.5625 -51.847656 3.28125 -51.140625 C 2.40625 -49.109375 2.40625 -47.570312 3.28125 -46.53125 C 3.445312 -47.03125 3.582031 -47.507812 3.6875 -47.96875 C 3.800781 -48.4375 3.914062 -48.863281 4.03125 -49.25 C 4.195312 -49.6875 4.347656 -50.125 4.484375 -50.5625 C 4.617188 -51 4.796875 -51.410156 5.015625 -51.796875 C 5.234375 -52.234375 5.476562 -52.613281 5.75 -52.9375 C 6.03125 -53.269531 6.28125 -53.628906 6.5 -54.015625 Z M 22.9375 -1.890625 C 22.445312 -0.140625 23.050781 1.203125 24.75 2.140625 C 26.613281 3.179688 27.984375 3.207031 28.859375 2.21875 C 28.304688 2 27.742188 1.78125 27.171875 1.5625 C 26.597656 1.34375 26.035156 1.125 25.484375 0.90625 C 24.878906 0.6875 24.382812 0.332031 24 -0.15625 C 23.625 -0.65625 23.269531 -1.234375 22.9375 -1.890625 Z M 36.921875 -52.78125 C 37.023438 -52.726562 37.117188 -52.703125 37.203125 -52.703125 C 37.285156 -52.703125 37.351562 -52.675781 37.40625 -52.625 C 37.519531 -53.113281 37.65625 -53.617188 37.8125 -54.140625 C 37.976562 -54.660156 38.171875 -55.140625 38.390625 -55.578125 C 38.609375 -56.015625 38.867188 -56.453125 39.171875 -56.890625 C 39.472656 -57.328125 39.789062 -57.738281 40.125 -58.125 C 39.6875 -58.238281 39.316406 -58.265625 39.015625 -58.203125 C 38.710938 -58.148438 38.367188 -57.90625 37.984375 -57.46875 C 36.890625 -56.039062 36.535156 -54.476562 36.921875 -52.78125 Z M 36.921875 -52.78125 "/></g></g></g></g><g clip-rule="nonzero" clip-path="url(#8a6c663b7b)"><g transform="matrix(1,0,0,1,0,97)"><g id="abfa945306" clip-path="url(#ed612ab033)"><g clip-rule="nonzero" clip-path="url(#ec22106df0)"><g style="fill:#38b6ff;fill-opacity:1;"><g transform="translate(0.701519, 78.498268)"><path style="stroke:none" d="M 48.765625 0 C 49.515625 0 50.226562 -0.144531 50.90625 -0.4375 C 52.21875 -1.0625 53.140625 -2.039062 53.671875 -3.375 C 54.160156 -4.71875 54.125 -6.050781 53.5625 -7.375 L 32.140625 -54.484375 C 31.785156 -55.234375 31.273438 -55.890625 30.609375 -56.453125 C 30.359375 -56.691406 30.085938 -56.894531 29.796875 -57.0625 L 29.71875 -57.09375 C 29.613281 -57.15625 29.503906 -57.222656 29.390625 -57.296875 C 29.367188 -57.296875 29.34375 -57.3125 29.3125 -57.34375 C 29.289062 -57.34375 29.265625 -57.351562 29.234375 -57.375 C 29.097656 -57.4375 28.960938 -57.476562 28.828125 -57.5 C 28.804688 -57.53125 28.78125 -57.546875 28.75 -57.546875 C 27.726562 -57.867188 26.695312 -57.867188 25.65625 -57.546875 C 25.570312 -57.515625 25.488281 -57.488281 25.40625 -57.46875 L 25.328125 -57.421875 C 25.296875 -57.421875 25.253906 -57.40625 25.203125 -57.375 C 25.179688 -57.375 25.15625 -57.363281 25.125 -57.34375 C 25.070312 -57.3125 25.003906 -57.285156 24.921875 -57.265625 L 24.890625 -57.21875 C 24.835938 -57.195312 24.78125 -57.171875 24.71875 -57.140625 C 24.644531 -57.085938 24.578125 -57.046875 24.515625 -57.015625 C 24.410156 -56.941406 24.316406 -56.875 24.234375 -56.8125 L 24.203125 -56.78125 C 24.097656 -56.695312 23.988281 -56.613281 23.875 -56.53125 C 23.15625 -55.96875 22.617188 -55.285156 22.265625 -54.484375 L 0.84375 -7.375 C 0.28125 -6.050781 0.238281 -4.71875 0.71875 -3.375 C 1.257812 -2.039062 2.1875 -1.0625 3.5 -0.4375 C 4.175781 -0.144531 4.890625 0 5.640625 0 C 6.660156 0 7.597656 -0.273438 8.453125 -0.828125 C 9.316406 -1.378906 9.960938 -2.125 10.390625 -3.0625 L 27.21875 -40.0625 L 44.015625 -3.0625 C 44.984375 -1.101562 46.566406 -0.0820312 48.765625 0 Z M 27.21875 -43.40625 C 26.8125 -43.40625 26.503906 -43.21875 26.296875 -42.84375 L 8.625 -3.859375 C 7.925781 -2.578125 6.929688 -1.9375 5.640625 -1.9375 C 5.179688 -1.9375 4.738281 -2.039062 4.3125 -2.25 C 3.476562 -2.625 2.898438 -3.226562 2.578125 -4.0625 C 2.253906 -4.894531 2.28125 -5.726562 2.65625 -6.5625 L 24.046875 -53.671875 C 24.285156 -54.179688 24.644531 -54.625 25.125 -55 C 25.125 -55.03125 25.140625 -55.046875 25.171875 -55.046875 C 25.222656 -55.097656 25.289062 -55.148438 25.375 -55.203125 C 25.375 -55.203125 25.375 -55.207031 25.375 -55.21875 C 25.375 -55.238281 25.375 -55.25 25.375 -55.25 C 25.425781 -55.269531 25.488281 -55.3125 25.5625 -55.375 C 25.625 -55.394531 25.664062 -55.421875 25.6875 -55.453125 C 25.71875 -55.453125 25.734375 -55.453125 25.734375 -55.453125 L 25.765625 -55.484375 C 25.828125 -55.515625 25.867188 -55.53125 25.890625 -55.53125 C 25.890625 -55.53125 25.890625 -55.539062 25.890625 -55.5625 C 25.921875 -55.5625 25.945312 -55.5625 25.96875 -55.5625 L 26.140625 -55.65625 C 26.191406 -55.65625 26.226562 -55.664062 26.25 -55.6875 C 26.875 -55.875 27.503906 -55.875 28.140625 -55.6875 C 28.171875 -55.6875 28.1875 -55.675781 28.1875 -55.65625 C 28.289062 -55.625 28.367188 -55.59375 28.421875 -55.5625 C 28.453125 -55.5625 28.46875 -55.5625 28.46875 -55.5625 C 28.5 -55.539062 28.523438 -55.53125 28.546875 -55.53125 C 28.628906 -55.5 28.695312 -55.457031 28.75 -55.40625 C 28.75 -55.40625 28.753906 -55.40625 28.765625 -55.40625 C 28.785156 -55.40625 28.796875 -55.40625 28.796875 -55.40625 C 28.984375 -55.300781 29.15625 -55.164062 29.3125 -55 C 29.3125 -55 29.328125 -54.988281 29.359375 -54.96875 C 29.816406 -54.613281 30.148438 -54.179688 30.359375 -53.671875 L 51.75 -6.5625 C 52.125 -5.726562 52.148438 -4.894531 51.828125 -4.0625 C 51.503906 -3.226562 50.941406 -2.625 50.140625 -2.25 C 49.679688 -2.039062 49.222656 -1.9375 48.765625 -1.9375 C 47.390625 -1.988281 46.394531 -2.628906 45.78125 -3.859375 L 28.109375 -42.84375 C 27.890625 -43.21875 27.59375 -43.40625 27.21875 -43.40625 Z M 32.375 0 C 33.875 0 35.144531 -0.519531 36.1875 -1.5625 C 37.238281 -2.613281 37.765625 -3.890625 37.765625 -5.390625 C 37.765625 -6.867188 37.238281 -8.128906 36.1875 -9.171875 C 35.144531 -10.222656 33.875 -10.75 32.375 -10.75 L 22.03125 -10.75 C 20.519531 -10.75 19.238281 -10.222656 18.1875 -9.171875 C 17.144531 -8.128906 16.625 -6.867188 16.625 -5.390625 C 16.625 -3.890625 17.144531 -2.613281 18.1875 -1.5625 C 19.238281 -0.519531 20.519531 0 22.03125 0 Z M 22.03125 -8.8125 L 32.375 -8.8125 C 33.34375 -8.8125 34.160156 -8.476562 34.828125 -7.8125 C 35.503906 -7.144531 35.84375 -6.335938 35.84375 -5.390625 C 35.84375 -4.429688 35.503906 -3.613281 34.828125 -2.9375 C 34.160156 -2.269531 33.34375 -1.9375 32.375 -1.9375 L 22.03125 -1.9375 C 21.0625 -1.9375 20.238281 -2.269531 19.5625 -2.9375 C 18.894531 -3.613281 18.5625 -4.429688 18.5625 -5.390625 C 18.5625 -6.335938 18.894531 -7.144531 19.5625 -7.8125 C 20.238281 -8.476562 21.0625 -8.8125 22.03125 -8.8125 Z M 22.03125 -8.8125 "/></g></g></g></g></g></g><g clip-rule="nonzero" clip-path="url(#aff6897357)"><g transform="matrix(1,0,0,1,24,177)"><g id="47b4172a8a" clip-path="url(#fbc0594073)"><g clip-rule="nonzero" clip-path="url(#620c1fcd83)"><g style="fill:#f6d603;fill-opacity:1;"><g transform="translate(0.538598, 24.386337)"><path style="stroke:none" d="M 14.75 -10.28125 L 13.15625 -6.25 L 16.265625 -6.25 L 15.9375 -4.46875 L 12.46875 -4.46875 L 10.71875 0 L 8.78125 0 L 10.53125 -4.46875 L 5.828125 -4.46875 L 4.09375 0 L 2.140625 0 L 3.890625 -4.46875 L 0.40625 -4.46875 L 0.71875 -6.25 L 4.578125 -6.25 L 6.171875 -10.28125 L 2.6875 -10.28125 L 3.015625 -12.0625 L 6.859375 -12.0625 L 8.609375 -16.53125 L 10.546875 -16.53125 L 8.796875 -12.0625 L 13.5 -12.0625 L 15.234375 -16.53125 L 17.1875 -16.53125 L 15.4375 -12.0625 L 18.546875 -12.0625 L 18.234375 -10.28125 Z M 12.796875 -10.28125 L 8.109375 -10.28125 L 6.53125 -6.25 L 11.21875 -6.25 Z M 12.796875 -10.28125 "/></g></g></g><g style="fill:#f6d603;fill-opacity:1;"><g transform="translate(19.305862, 24.386337)"><path style="stroke:none" d="M 15.328125 -15.578125 L 12.578125 0 L 10.546875 0 L 11.796875 -7.109375 L 3.890625 -7.109375 L 2.609375 0 L 0.578125 0 L 3.34375 -15.578125 L 5.390625 -15.578125 L 4.15625 -8.6875 L 12.09375 -8.6875 L 13.296875 -15.578125 Z M 15.328125 -15.578125 "/></g></g><g style="fill:#f6d603;fill-opacity:1;"><g transform="translate(34.744154, 24.386337)"><path style="stroke:none" d="M 0.890625 -6.171875 C 1.117188 -7.421875 1.570312 -8.515625 2.25 -9.453125 C 2.925781 -10.398438 3.75 -11.132812 4.71875 -11.65625 C 5.695312 -12.1875 6.738281 -12.453125 7.84375 -12.453125 C 8.914062 -12.453125 9.800781 -12.21875 10.5 -11.75 C 11.195312 -11.289062 11.679688 -10.710938 11.953125 -10.015625 L 12.359375 -12.25 L 14.40625 -12.25 L 12.25 0 L 10.1875 0 L 10.609375 -2.28125 C 10.078125 -1.5625 9.367188 -0.96875 8.484375 -0.5 C 7.609375 -0.03125 6.640625 0.203125 5.578125 0.203125 C 4.628906 0.203125 3.789062 0 3.0625 -0.40625 C 2.332031 -0.820312 1.765625 -1.410156 1.359375 -2.171875 C 0.960938 -2.929688 0.765625 -3.804688 0.765625 -4.796875 C 0.765625 -5.242188 0.804688 -5.703125 0.890625 -6.171875 Z M 11.28125 -6.140625 C 11.34375 -6.453125 11.375 -6.789062 11.375 -7.15625 C 11.375 -8.238281 11.046875 -9.097656 10.390625 -9.734375 C 9.742188 -10.367188 8.925781 -10.6875 7.9375 -10.6875 C 7.175781 -10.6875 6.445312 -10.503906 5.75 -10.140625 C 5.0625 -9.785156 4.46875 -9.265625 3.96875 -8.578125 C 3.476562 -7.890625 3.15625 -7.085938 3 -6.171875 C 2.9375 -5.859375 2.90625 -5.515625 2.90625 -5.140625 C 2.90625 -4.035156 3.222656 -3.164062 3.859375 -2.53125 C 4.503906 -1.90625 5.328125 -1.59375 6.328125 -1.59375 C 7.085938 -1.59375 7.8125 -1.773438 8.5 -2.140625 C 9.195312 -2.503906 9.789062 -3.03125 10.28125 -3.71875 C 10.78125 -4.414062 11.113281 -5.222656 11.28125 -6.140625 Z M 11.28125 -6.140625 "/></g></g><g style="fill:#f6d603;fill-opacity:1;"><g transform="translate(49.847331, 24.386337)"><path style="stroke:none" d="M 8.765625 -12.46875 C 10.023438 -12.46875 11.035156 -12.128906 11.796875 -11.453125 C 12.554688 -10.773438 12.9375 -9.785156 12.9375 -8.484375 C 12.9375 -8.015625 12.898438 -7.59375 12.828125 -7.21875 L 11.546875 0 L 9.546875 0 L 10.765625 -6.921875 C 10.828125 -7.234375 10.859375 -7.5625 10.859375 -7.90625 C 10.859375 -8.8125 10.609375 -9.503906 10.109375 -9.984375 C 9.609375 -10.460938 8.910156 -10.703125 8.015625 -10.703125 C 6.941406 -10.703125 6.03125 -10.363281 5.28125 -9.6875 C 4.53125 -9.019531 4.046875 -8.046875 3.828125 -6.765625 L 3.828125 -6.8125 L 2.609375 0 L 0.578125 0 L 2.75 -12.25 L 4.78125 -12.25 L 4.46875 -10.484375 C 4.976562 -11.117188 5.609375 -11.609375 6.359375 -11.953125 C 7.117188 -12.296875 7.921875 -12.46875 8.765625 -12.46875 Z M 8.765625 -12.46875 "/></g></g><g style="fill:#f6d603;fill-opacity:1;"><g transform="translate(64.146194, 24.386337)"><path style="stroke:none" d="M 7.84375 -12.453125 C 8.894531 -12.453125 9.78125 -12.21875 10.5 -11.75 C 11.21875 -11.289062 11.703125 -10.710938 11.953125 -10.015625 L 12.359375 -12.25 L 14.40625 -12.25 L 12.203125 0.265625 C 12.003906 1.378906 11.585938 2.375 10.953125 3.25 C 10.328125 4.125 9.53125 4.804688 8.5625 5.296875 C 7.59375 5.785156 6.519531 6.03125 5.34375 6.03125 C 3.726562 6.03125 2.453125 5.644531 1.515625 4.875 C 0.578125 4.113281 0.125 3.082031 0.15625 1.78125 L 2.1875 1.78125 C 2.28125 2.53125 2.632812 3.128906 3.25 3.578125 C 3.863281 4.035156 4.664062 4.265625 5.65625 4.265625 C 6.769531 4.265625 7.742188 3.914062 8.578125 3.21875 C 9.410156 2.519531 9.941406 1.535156 10.171875 0.265625 L 10.609375 -2.296875 C 10.078125 -1.585938 9.375 -0.992188 8.5 -0.515625 C 7.625 -0.0351562 6.660156 0.203125 5.609375 0.203125 C 4.648438 0.203125 3.804688 0 3.078125 -0.40625 C 2.347656 -0.820312 1.78125 -1.410156 1.375 -2.171875 C 0.96875 -2.929688 0.765625 -3.804688 0.765625 -4.796875 C 0.765625 -5.242188 0.804688 -5.703125 0.890625 -6.171875 C 1.117188 -7.421875 1.570312 -8.515625 2.25 -9.453125 C 2.925781 -10.398438 3.75 -11.132812 4.71875 -11.65625 C 5.695312 -12.1875 6.738281 -12.453125 7.84375 -12.453125 Z M 11.28125 -6.140625 C 11.34375 -6.453125 11.375 -6.789062 11.375 -7.15625 C 11.375 -8.238281 11.046875 -9.097656 10.390625 -9.734375 C 9.742188 -10.367188 8.925781 -10.6875 7.9375 -10.6875 C 7.175781 -10.6875 6.445312 -10.503906 5.75 -10.140625 C 5.0625 -9.785156 4.46875 -9.265625 3.96875 -8.578125 C 3.476562 -7.890625 3.15625 -7.085938 3 -6.171875 C 2.9375 -5.859375 2.90625 -5.515625 2.90625 -5.140625 C 2.90625 -4.035156 3.222656 -3.164062 3.859375 -2.53125 C 4.503906 -1.90625 5.328125 -1.59375 6.328125 -1.59375 C 7.085938 -1.59375 7.8125 -1.773438 8.5 -2.140625 C 9.195312 -2.503906 9.789062 -3.03125 10.28125 -3.71875 C 10.78125 -4.414062 11.113281 -5.222656 11.28125 -6.140625 Z M 11.28125 -6.140625 "/></g></g><g style="fill:#f6d603;fill-opacity:1;"><g transform="translate(79.249371, 24.386337)"><path style="stroke:none" d="M 0.890625 -6.171875 C 1.117188 -7.421875 1.570312 -8.515625 2.25 -9.453125 C 2.925781 -10.398438 3.75 -11.132812 4.71875 -11.65625 C 5.695312 -12.1875 6.738281 -12.453125 7.84375 -12.453125 C 8.914062 -12.453125 9.800781 -12.21875 10.5 -11.75 C 11.195312 -11.289062 11.679688 -10.710938 11.953125 -10.015625 L 12.359375 -12.25 L 14.40625 -12.25 L 12.25 0 L 10.1875 0 L 10.609375 -2.28125 C 10.078125 -1.5625 9.367188 -0.96875 8.484375 -0.5 C 7.609375 -0.03125 6.640625 0.203125 5.578125 0.203125 C 4.628906 0.203125 3.789062 0 3.0625 -0.40625 C 2.332031 -0.820312 1.765625 -1.410156 1.359375 -2.171875 C 0.960938 -2.929688 0.765625 -3.804688 0.765625 -4.796875 C 0.765625 -5.242188 0.804688 -5.703125 0.890625 -6.171875 Z M 11.28125 -6.140625 C 11.34375 -6.453125 11.375 -6.789062 11.375 -7.15625 C 11.375 -8.238281 11.046875 -9.097656 10.390625 -9.734375 C 9.742188 -10.367188 8.925781 -10.6875 7.9375 -10.6875 C 7.175781 -10.6875 6.445312 -10.503906 5.75 -10.140625 C 5.0625 -9.785156 4.46875 -9.265625 3.96875 -8.578125 C 3.476562 -7.890625 3.15625 -7.085938 3 -6.171875 C 2.9375 -5.859375 2.90625 -5.515625 2.90625 -5.140625 C 2.90625 -4.035156 3.222656 -3.164062 3.859375 -2.53125 C 4.503906 -1.90625 5.328125 -1.59375 6.328125 -1.59375 C 7.085938 -1.59375 7.8125 -1.773438 8.5 -2.140625 C 9.195312 -2.503906 9.789062 -3.03125 10.28125 -3.71875 C 10.78125 -4.414062 11.113281 -5.222656 11.28125 -6.140625 Z M 11.28125 -6.140625 "/></g></g><g style="fill:#f6d603;fill-opacity:1;"><g transform="translate(94.352548, 24.386337)"><path style="stroke:none" d="M 3.671875 -3.34375 C 3.617188 -3.125 3.59375 -2.929688 3.59375 -2.765625 C 3.59375 -2.398438 3.707031 -2.132812 3.9375 -1.96875 C 4.175781 -1.800781 4.554688 -1.71875 5.078125 -1.71875 L 6.5625 -1.71875 L 6.25 0 L 4.421875 0 C 3.453125 0 2.722656 -0.179688 2.234375 -0.546875 C 1.753906 -0.921875 1.515625 -1.535156 1.515625 -2.390625 C 1.515625 -2.710938 1.546875 -3.03125 1.609375 -3.34375 L 2.875 -10.5625 L 1.3125 -10.5625 L 1.609375 -12.25 L 3.1875 -12.25 L 3.734375 -15.328125 L 5.78125 -15.328125 L 5.25 -12.25 L 8.421875 -12.25 L 8.140625 -10.5625 L 4.9375 -10.5625 Z M 3.671875 -3.34375 "/></g></g><g style="fill:#f6d603;fill-opacity:1;"><g transform="translate(102.485016, 24.386337)"><path style="stroke:none" d="M 12.828125 0 L 10.796875 0 L 4.828125 -12.40625 L 2.609375 0 L 0.578125 0 L 3.34375 -15.59375 L 5.390625 -15.59375 L 11.375 -3.21875 L 13.5625 -15.59375 L 15.59375 -15.59375 Z M 12.828125 0 "/></g></g><g style="fill:#f6d603;fill-opacity:1;"><g transform="translate(118.191413, 24.386337)"><path style="stroke:none" d="M 3.546875 -12.25 L 5.625 -2.375 L 11.1875 -12.25 L 13.296875 -12.25 L 2.75 5.765625 L 0.625 5.765625 L 4.09375 -0.140625 L 1.296875 -12.25 Z M 3.546875 -12.25 "/></g></g><g style="fill:#f6d603;fill-opacity:1;"><g transform="translate(130.769933, 24.386337)"><path style="stroke:none" d="M 0.890625 -6.171875 C 1.117188 -7.421875 1.570312 -8.515625 2.25 -9.453125 C 2.925781 -10.398438 3.75 -11.132812 4.71875 -11.65625 C 5.695312 -12.1875 6.738281 -12.453125 7.84375 -12.453125 C 8.914062 -12.453125 9.800781 -12.21875 10.5 -11.75 C 11.195312 -11.289062 11.679688 -10.710938 11.953125 -10.015625 L 12.359375 -12.25 L 14.40625 -12.25 L 12.25 0 L 10.1875 0 L 10.609375 -2.28125 C 10.078125 -1.5625 9.367188 -0.96875 8.484375 -0.5 C 7.609375 -0.03125 6.640625 0.203125 5.578125 0.203125 C 4.628906 0.203125 3.789062 0 3.0625 -0.40625 C 2.332031 -0.820312 1.765625 -1.410156 1.359375 -2.171875 C 0.960938 -2.929688 0.765625 -3.804688 0.765625 -4.796875 C 0.765625 -5.242188 0.804688 -5.703125 0.890625 -6.171875 Z M 11.28125 -6.140625 C 11.34375 -6.453125 11.375 -6.789062 11.375 -7.15625 C 11.375 -8.238281 11.046875 -9.097656 10.390625 -9.734375 C 9.742188 -10.367188 8.925781 -10.6875 7.9375 -10.6875 C 7.175781 -10.6875 6.445312 -10.503906 5.75 -10.140625 C 5.0625 -9.785156 4.46875 -9.265625 3.96875 -8.578125 C 3.476562 -7.890625 3.15625 -7.085938 3 -6.171875 C 2.9375 -5.859375 2.90625 -5.515625 2.90625 -5.140625 C 2.90625 -4.035156 3.222656 -3.164062 3.859375 -2.53125 C 4.503906 -1.90625 5.328125 -1.59375 6.328125 -1.59375 C 7.085938 -1.59375 7.8125 -1.773438 8.5 -2.140625 C 9.195312 -2.503906 9.789062 -3.03125 10.28125 -3.71875 C 10.78125 -4.414062 11.113281 -5.222656 11.28125 -6.140625 Z M 11.28125 -6.140625 "/></g></g><g style="fill:#f6d603;fill-opacity:1;"><g transform="translate(145.87311, 24.386337)"><path style="stroke:none" d="M 17.515625 -12.46875 C 18.765625 -12.46875 19.765625 -12.128906 20.515625 -11.453125 C 21.273438 -10.773438 21.65625 -9.785156 21.65625 -8.484375 C 21.65625 -8.015625 21.617188 -7.59375 21.546875 -7.21875 L 20.265625 0 L 18.25 0 L 19.484375 -6.921875 C 19.546875 -7.234375 19.578125 -7.570312 19.578125 -7.9375 C 19.578125 -8.84375 19.332031 -9.53125 18.84375 -10 C 18.363281 -10.46875 17.679688 -10.703125 16.796875 -10.703125 C 15.785156 -10.703125 14.914062 -10.390625 14.1875 -9.765625 C 13.46875 -9.148438 12.976562 -8.265625 12.71875 -7.109375 L 11.4375 0 L 9.421875 0 L 10.65625 -6.921875 C 10.71875 -7.265625 10.75 -7.609375 10.75 -7.953125 C 10.75 -8.847656 10.503906 -9.53125 10.015625 -10 C 9.535156 -10.46875 8.859375 -10.703125 7.984375 -10.703125 C 6.921875 -10.703125 6.015625 -10.363281 5.265625 -9.6875 C 4.523438 -9.007812 4.046875 -8.03125 3.828125 -6.75 L 3.828125 -6.796875 L 2.609375 0 L 0.578125 0 L 2.75 -12.25 L 4.78125 -12.25 L 4.46875 -10.484375 C 4.976562 -11.117188 5.601562 -11.609375 6.34375 -11.953125 C 7.09375 -12.296875 7.875 -12.46875 8.6875 -12.46875 C 9.71875 -12.46875 10.585938 -12.234375 11.296875 -11.765625 C 12.003906 -11.304688 12.46875 -10.628906 12.6875 -9.734375 C 13.195312 -10.597656 13.882812 -11.269531 14.75 -11.75 C 15.625 -12.226562 16.546875 -12.46875 17.515625 -12.46875 Z M 17.515625 -12.46875 "/></g></g><g style="fill:#f6d603;fill-opacity:1;"><g transform="translate(168.885331, 24.386337)"><path style="stroke:none" d="M 0.890625 -6.171875 C 1.117188 -7.421875 1.570312 -8.515625 2.25 -9.453125 C 2.925781 -10.398438 3.75 -11.132812 4.71875 -11.65625 C 5.695312 -12.1875 6.738281 -12.453125 7.84375 -12.453125 C 8.914062 -12.453125 9.800781 -12.21875 10.5 -11.75 C 11.195312 -11.289062 11.679688 -10.710938 11.953125 -10.015625 L 12.359375 -12.25 L 14.40625 -12.25 L 12.25 0 L 10.1875 0 L 10.609375 -2.28125 C 10.078125 -1.5625 9.367188 -0.96875 8.484375 -0.5 C 7.609375 -0.03125 6.640625 0.203125 5.578125 0.203125 C 4.628906 0.203125 3.789062 0 3.0625 -0.40625 C 2.332031 -0.820312 1.765625 -1.410156 1.359375 -2.171875 C 0.960938 -2.929688 0.765625 -3.804688 0.765625 -4.796875 C 0.765625 -5.242188 0.804688 -5.703125 0.890625 -6.171875 Z M 11.28125 -6.140625 C 11.34375 -6.453125 11.375 -6.789062 11.375 -7.15625 C 11.375 -8.238281 11.046875 -9.097656 10.390625 -9.734375 C 9.742188 -10.367188 8.925781 -10.6875 7.9375 -10.6875 C 7.175781 -10.6875 6.445312 -10.503906 5.75 -10.140625 C 5.0625 -9.785156 4.46875 -9.265625 3.96875 -8.578125 C 3.476562 -7.890625 3.15625 -7.085938 3 -6.171875 C 2.9375 -5.859375 2.90625 -5.515625 2.90625 -5.140625 C 2.90625 -4.035156 3.222656 -3.164062 3.859375 -2.53125 C 4.503906 -1.90625 5.328125 -1.59375 6.328125 -1.59375 C 7.085938 -1.59375 7.8125 -1.773438 8.5 -2.140625 C 9.195312 -2.503906 9.789062 -3.03125 10.28125 -3.71875 C 10.78125 -4.414062 11.113281 -5.222656 11.28125 -6.140625 Z M 11.28125 -6.140625 "/></g></g><g style="fill:#f6d603;fill-opacity:1;"><g transform="translate(183.988508, 24.386337)"><path style="stroke:none" d="M 8.765625 -12.46875 C 10.023438 -12.46875 11.035156 -12.128906 11.796875 -11.453125 C 12.554688 -10.773438 12.9375 -9.785156 12.9375 -8.484375 C 12.9375 -8.015625 12.898438 -7.59375 12.828125 -7.21875 L 11.546875 0 L 9.546875 0 L 10.765625 -6.921875 C 10.828125 -7.234375 10.859375 -7.5625 10.859375 -7.90625 C 10.859375 -8.8125 10.609375 -9.503906 10.109375 -9.984375 C 9.609375 -10.460938 8.910156 -10.703125 8.015625 -10.703125 C 6.941406 -10.703125 6.03125 -10.363281 5.28125 -9.6875 C 4.53125 -9.019531 4.046875 -8.046875 3.828125 -6.765625 L 3.828125 -6.8125 L 2.609375 0 L 0.578125 0 L 2.75 -12.25 L 4.78125 -12.25 L 4.46875 -10.484375 C 4.976562 -11.117188 5.609375 -11.609375 6.359375 -11.953125 C 7.117188 -12.296875 7.921875 -12.46875 8.765625 -12.46875 Z M 8.765625 -12.46875 "/></g></g><g style="fill:#f6d603;fill-opacity:1;"><g transform="translate(198.28737, 24.386337)"><path style="stroke:none" d="M 5.09375 -13.984375 L 4.15625 -8.640625 L 9.8125 -8.640625 L 9.546875 -7.078125 L 3.890625 -7.078125 L 2.90625 -1.609375 L 9.25 -1.609375 L 8.953125 0 L 0.578125 0 L 3.34375 -15.59375 L 11.703125 -15.59375 L 11.421875 -13.984375 Z M 5.09375 -13.984375 "/></g></g><g style="fill:#f6d603;fill-opacity:1;"><g transform="translate(209.748811, 24.386337)"><path style="stroke:none" d="M 5.546875 -16.53125 L 2.609375 0 L 0.578125 0 L 3.515625 -16.53125 Z M 5.546875 -16.53125 "/></g></g><g style="fill:#f6d603;fill-opacity:1;"><g transform="translate(215.244931, 24.386337)"><path style="stroke:none" d="M 8.0625 -12.453125 C 9.09375 -12.453125 9.984375 -12.253906 10.734375 -11.859375 C 11.484375 -11.460938 12.054688 -10.910156 12.453125 -10.203125 C 12.847656 -9.492188 13.046875 -8.6875 13.046875 -7.78125 C 13.046875 -7.46875 13.007812 -7.085938 12.9375 -6.640625 C 12.875 -6.253906 12.773438 -5.847656 12.640625 -5.421875 L 2.859375 -5.421875 C 2.828125 -5.128906 2.8125 -4.914062 2.8125 -4.78125 C 2.8125 -3.75 3.117188 -2.945312 3.734375 -2.375 C 4.359375 -1.800781 5.171875 -1.515625 6.171875 -1.515625 C 7.046875 -1.515625 7.8125 -1.71875 8.46875 -2.125 C 9.132812 -2.539062 9.640625 -3.09375 9.984375 -3.78125 L 12.171875 -3.78125 C 11.640625 -2.601562 10.816406 -1.644531 9.703125 -0.90625 C 8.597656 -0.164062 7.316406 0.203125 5.859375 0.203125 C 4.316406 0.203125 3.082031 -0.238281 2.15625 -1.125 C 1.226562 -2.007812 0.765625 -3.222656 0.765625 -4.765625 C 0.765625 -5.191406 0.804688 -5.648438 0.890625 -6.140625 C 1.117188 -7.410156 1.570312 -8.519531 2.25 -9.46875 C 2.9375 -10.425781 3.78125 -11.160156 4.78125 -11.671875 C 5.789062 -12.191406 6.882812 -12.453125 8.0625 -12.453125 Z M 10.875 -6.90625 C 10.925781 -7.195312 10.953125 -7.472656 10.953125 -7.734375 C 10.953125 -8.679688 10.648438 -9.414062 10.046875 -9.9375 C 9.441406 -10.457031 8.65625 -10.71875 7.6875 -10.71875 C 6.644531 -10.71875 5.695312 -10.378906 4.84375 -9.703125 C 4 -9.023438 3.425781 -8.09375 3.125 -6.90625 Z M 10.875 -6.90625 "/></g></g><g style="fill:#f6d603;fill-opacity:1;"><g transform="translate(229.096945, 24.386337)"><path style="stroke:none" d="M 7.84375 -12.453125 C 8.894531 -12.453125 9.78125 -12.21875 10.5 -11.75 C 11.21875 -11.289062 11.703125 -10.710938 11.953125 -10.015625 L 12.359375 -12.25 L 14.40625 -12.25 L 12.203125 0.265625 C 12.003906 1.378906 11.585938 2.375 10.953125 3.25 C 10.328125 4.125 9.53125 4.804688 8.5625 5.296875 C 7.59375 5.785156 6.519531 6.03125 5.34375 6.03125 C 3.726562 6.03125 2.453125 5.644531 1.515625 4.875 C 0.578125 4.113281 0.125 3.082031 0.15625 1.78125 L 2.1875 1.78125 C 2.28125 2.53125 2.632812 3.128906 3.25 3.578125 C 3.863281 4.035156 4.664062 4.265625 5.65625 4.265625 C 6.769531 4.265625 7.742188 3.914062 8.578125 3.21875 C 9.410156 2.519531 9.941406 1.535156 10.171875 0.265625 L 10.609375 -2.296875 C 10.078125 -1.585938 9.375 -0.992188 8.5 -0.515625 C 7.625 -0.0351562 6.660156 0.203125 5.609375 0.203125 C 4.648438 0.203125 3.804688 0 3.078125 -0.40625 C 2.347656 -0.820312 1.78125 -1.410156 1.375 -2.171875 C 0.96875 -2.929688 0.765625 -3.804688 0.765625 -4.796875 C 0.765625 -5.242188 0.804688 -5.703125 0.890625 -6.171875 C 1.117188 -7.421875 1.570312 -8.515625 2.25 -9.453125 C 2.925781 -10.398438 3.75 -11.132812 4.71875 -11.65625 C 5.695312 -12.1875 6.738281 -12.453125 7.84375 -12.453125 Z M 11.28125 -6.140625 C 11.34375 -6.453125 11.375 -6.789062 11.375 -7.15625 C 11.375 -8.238281 11.046875 -9.097656 10.390625 -9.734375 C 9.742188 -10.367188 8.925781 -10.6875 7.9375 -10.6875 C 7.175781 -10.6875 6.445312 -10.503906 5.75 -10.140625 C 5.0625 -9.785156 4.46875 -9.265625 3.96875 -8.578125 C 3.476562 -7.890625 3.15625 -7.085938 3 -6.171875 C 2.9375 -5.859375 2.90625 -5.515625 2.90625 -5.140625 C 2.90625 -4.035156 3.222656 -3.164062 3.859375 -2.53125 C 4.503906 -1.90625 5.328125 -1.59375 6.328125 -1.59375 C 7.085938 -1.59375 7.8125 -1.773438 8.5 -2.140625 C 9.195312 -2.503906 9.789062 -3.03125 10.28125 -3.71875 C 10.78125 -4.414062 11.113281 -5.222656 11.28125 -6.140625 Z M 11.28125 -6.140625 "/></g></g><g style="fill:#f6d603;fill-opacity:1;"><g transform="translate(244.200122, 24.386337)"><path style="stroke:none" d="M 0.890625 -6.171875 C 1.117188 -7.421875 1.570312 -8.515625 2.25 -9.453125 C 2.925781 -10.398438 3.75 -11.132812 4.71875 -11.65625 C 5.695312 -12.1875 6.738281 -12.453125 7.84375 -12.453125 C 8.914062 -12.453125 9.800781 -12.21875 10.5 -11.75 C 11.195312 -11.289062 11.679688 -10.710938 11.953125 -10.015625 L 12.359375 -12.25 L 14.40625 -12.25 L 12.25 0 L 10.1875 0 L 10.609375 -2.28125 C 10.078125 -1.5625 9.367188 -0.96875 8.484375 -0.5 C 7.609375 -0.03125 6.640625 0.203125 5.578125 0.203125 C 4.628906 0.203125 3.789062 0 3.0625 -0.40625 C 2.332031 -0.820312 1.765625 -1.410156 1.359375 -2.171875 C 0.960938 -2.929688 0.765625 -3.804688 0.765625 -4.796875 C 0.765625 -5.242188 0.804688 -5.703125 0.890625 -6.171875 Z M 11.28125 -6.140625 C 11.34375 -6.453125 11.375 -6.789062 11.375 -7.15625 C 11.375 -8.238281 11.046875 -9.097656 10.390625 -9.734375 C 9.742188 -10.367188 8.925781 -10.6875 7.9375 -10.6875 C 7.175781 -10.6875 6.445312 -10.503906 5.75 -10.140625 C 5.0625 -9.785156 4.46875 -9.265625 3.96875 -8.578125 C 3.476562 -7.890625 3.15625 -7.085938 3 -6.171875 C 2.9375 -5.859375 2.90625 -5.515625 2.90625 -5.140625 C 2.90625 -4.035156 3.222656 -3.164062 3.859375 -2.53125 C 4.503906 -1.90625 5.328125 -1.59375 6.328125 -1.59375 C 7.085938 -1.59375 7.8125 -1.773438 8.5 -2.140625 C 9.195312 -2.503906 9.789062 -3.03125 10.28125 -3.71875 C 10.78125 -4.414062 11.113281 -5.222656 11.28125 -6.140625 Z M 11.28125 -6.140625 "/></g></g><g style="fill:#f6d603;fill-opacity:1;"><g transform="translate(259.303299, 24.386337)"><path style="stroke:none" d="M 8.765625 -12.46875 C 10.023438 -12.46875 11.035156 -12.128906 11.796875 -11.453125 C 12.554688 -10.773438 12.9375 -9.785156 12.9375 -8.484375 C 12.9375 -8.015625 12.898438 -7.59375 12.828125 -7.21875 L 11.546875 0 L 9.546875 0 L 10.765625 -6.921875 C 10.828125 -7.234375 10.859375 -7.5625 10.859375 -7.90625 C 10.859375 -8.8125 10.609375 -9.503906 10.109375 -9.984375 C 9.609375 -10.460938 8.910156 -10.703125 8.015625 -10.703125 C 6.941406 -10.703125 6.03125 -10.363281 5.28125 -9.6875 C 4.53125 -9.019531 4.046875 -8.046875 3.828125 -6.765625 L 3.828125 -6.8125 L 2.609375 0 L 0.578125 0 L 2.75 -12.25 L 4.78125 -12.25 L 4.46875 -10.484375 C 4.976562 -11.117188 5.609375 -11.609375 6.359375 -11.953125 C 7.117188 -12.296875 7.921875 -12.46875 8.765625 -12.46875 Z M 8.765625 -12.46875 "/></g></g></g></g></g></g></g></g></g></svg>